<svg width="84" height="84" viewBox="0 0 84 84" fill="none" xmlns="http://www.w3.org/2000/svg">
<path d="M22.9167 25C26.2319 25 29.4113 23.683 31.7555 21.3388C34.0997 18.9946 35.4167 15.8152 35.4167 12.5C35.4167 9.18479 34.0997 6.00537 31.7555 3.66117C29.4113 1.31696 26.2319 0 22.9167 0C19.6015 0 16.422 1.31696 14.0778 3.66117C11.7336 6.00537 10.4167 9.18479 10.4167 12.5C10.4167 15.8152 11.7336 18.9946 14.0778 21.3388C16.422 23.683 19.6015 25 22.9167 25ZM0 36.5333C0 32.4583 3.29583 29.1667 7.36667 29.1667H27.2292C25.7642 31.6992 24.9951 34.5742 25 37.5C24.9972 39.8649 25.499 42.2033 26.4719 44.3588C27.4447 46.5144 28.8663 48.4376 30.6417 50H26.1167C23.7683 50.0001 21.4759 50.7165 19.5454 52.0537C17.6149 53.3908 16.1382 55.285 15.3125 57.4833C9.07083 55.9583 5.2 52.5542 2.92083 48.7625C0 43.9 0 38.9 0 38.0292V36.5333ZM58.3333 37.5C58.3384 34.5742 57.5693 31.6992 56.1042 29.1667H75.9667C80.0417 29.1667 83.3333 32.4625 83.3333 36.5333V38.0333C83.3333 38.8958 83.3333 43.9 80.4167 48.7625C78.1333 52.5542 74.2625 55.9583 68.0208 57.4833C67.1956 55.2846 65.7191 53.3901 63.7885 52.0529C61.8578 50.7157 59.5651 49.9995 57.2167 50H52.6917C54.467 48.4376 55.8886 46.5144 56.8615 44.3588C57.8344 42.2033 58.3361 39.8649 58.3333 37.5ZM72.9167 12.5C72.9167 15.8152 71.5997 18.9946 69.2555 21.3388C66.9113 23.683 63.7319 25 60.4167 25C57.1015 25 53.922 23.683 51.5778 21.3388C49.2336 18.9946 47.9167 15.8152 47.9167 12.5C47.9167 9.18479 49.2336 6.00537 51.5778 3.66117C53.922 1.31696 57.1015 0 60.4167 0C63.7319 0 66.9113 1.31696 69.2555 3.66117C71.5997 6.00537 72.9167 9.18479 72.9167 12.5ZM18.75 61.5333C18.75 57.4583 22.0458 54.1667 26.1167 54.1667H57.2167C61.2875 54.1667 64.5833 57.4625 64.5833 61.5333V63.0333C64.5833 63.8958 64.5833 68.9 61.6667 73.7625C58.5708 78.9042 52.5542 83.3333 41.6667 83.3333C30.7792 83.3333 24.7583 78.9042 21.6667 73.7625C18.75 68.9 18.75 63.9 18.75 63.0292V61.5333ZM41.6667 50C43.3082 50 44.9336 49.6767 46.4502 49.0485C47.9668 48.4203 49.3448 47.4996 50.5055 46.3388C51.6662 45.1781 52.587 43.8001 53.2152 42.2835C53.8433 40.767 54.1667 39.1415 54.1667 37.5C54.1667 35.8585 53.8433 34.233 53.2152 32.7165C52.587 31.1999 51.6662 29.8219 50.5055 28.6612C49.3448 27.5004 47.9668 26.5797 46.4502 25.9515C44.9336 25.3233 43.3082 25 41.6667 25C38.3515 25 35.172 26.317 32.8278 28.6612C30.4836 31.0054 29.1667 34.1848 29.1667 37.5C29.1667 40.8152 30.4836 43.9946 32.8278 46.3388C35.172 48.683 38.3515 50 41.6667 50Z" fill="black"/>
</svg>
