<?xml version="1.0" encoding="utf-8"?>
<!-- Generator: Adobe Illustrator 24.0.0, SVG Export Plug-In . SVG Version: 6.00 Build 0)  -->
<svg version="1.1" id="Layer_1" xmlns="http://www.w3.org/2000/svg" xmlns:xlink="http://www.w3.org/1999/xlink" x="0px" y="0px"
	 viewBox="0 0 500 500" style="enable-background:new 0 0 500 500;" xml:space="preserve">
<style type="text/css">
	.st0{fill:#FFFFFF;}
	.st1{fill:#070707;}
	.st2{fill:#121212;}
</style>
<g>
	<path class="st1" d="M392.34,360.77c2.54,14.47,5.61,28.11,7.11,41.92c0.85,7.76,0.23,16.07-1.67,23.64
		c-3.38,13.42-14.94,22.04-28.81,21.76c-7.66-0.15-15.81-1.12-22.82-3.96c-35.42-14.35-68.89-6.32-102.25,7.16
		c-12.89,5.21-25.95,10.35-39.38,13.73c-8.09,2.04-17.16,1.57-25.59,0.57c-19.93-2.35-33.06-14-40.04-32.56
		c-7.71-20.5-7.02-41.51-3.08-62.63c0.32-1.71,0.57-3.44,0.96-5.75c-17.26,0.08-31.77-6.14-44.03-17.12
		c-27.1-24.27-40.27-54.44-35.19-90.96c5.13-36.83,40.99-55.63,74.77-40.03c2.35,1.08,4.65,2.27,7.42,3.62
		c-1.69-7.85-3.76-15.26-4.83-22.81c-2.75-19.51-1.89-38.72,7.17-56.76c14.16-28.21,44.88-39.28,73.61-26.2
		c23.95,10.9,38.28,30.63,48.15,54.19c0.97,2.32,1.89,4.67,3.31,8.2c1.07-3.09,1.79-5.05,2.43-7.03
		c5.45-16.78,13.66-31.95,26.39-44.36c32-31.19,78.31-21.92,95.71,19.26c8.67,20.51,9.48,41.86,5.72,63.56
		c-0.33,1.9-0.65,3.79-0.75,4.4c10.18-1.69,20.35-5.12,30.37-4.71c26.44,1.08,46.07,20.37,48.47,48.18
		c3.5,40.44-12.37,72.46-45.86,95.38C418.62,358.99,406.01,361.99,392.34,360.77z M167.19,379.63c1.63,8.14,2.48,16.55,5.09,24.37
		c3.66,10.95,12.02,16.29,23.49,15.66c5.46-0.3,10.93-1.96,16.19-3.62c5.31-1.68,10.31-4.3,15.55-6.24
		c35.86-13.33,72.07-18.67,109.38-5.59c11.26,3.95,20.66-3.01,21.73-16.04c0.63-7.64,0.64-15.73-1.21-23.09
		c-5.32-21.21-12.95-41.8-30.61-56.05c-30.28-24.42-65.26-29.27-101-16.9C193.94,303.16,166.77,333.17,167.19,379.63z
		 M188.99,150.12c-8.52-0.14-15.99,2.9-23.07,7.31c-4.16,2.6-6.5,6.03-7.17,11.05c-2.92,21.69,1.88,41.73,12.86,60.33
		c7.77,13.17,17.86,24.15,32.95,29.09c19.21,6.29,39.87-7.31,40.11-27.48c0.28-23.31-5.71-45.15-21.37-63.26
		C214.32,156.8,203.16,150.29,188.99,150.12z M362.78,185.33c-1.31-5.12-2.89-15.46-6.66-24.93c-4.97-12.5-15.4-18.43-27.72-15.94
		c-14.29,2.89-26.82,9.01-32.47,24.22c-9.13,24.56-12.17,49.33,1.23,72.98c12.6,22.24,30.14,23.84,46.93,4.1
		C357.53,229.97,361.69,210.77,362.78,185.33z M444.52,261.43c-1.11-4.69-2.5-13.15-5.33-21.1c-1.09-3.08-5.06-6.2-8.36-7.23
		c-9.42-2.94-18.19,0.28-26.06,5.44c-17.21,11.28-27.22,27.64-32.18,47.3c-2.89,11.46-3.19,22.94,1.46,34.06
		c5.77,13.81,14.98,17.89,28.72,12.32c4.91-1.99,9.74-4.78,13.77-8.2C434.57,308.7,443.23,288.78,444.52,261.43z M108.39,249.53
		c-21.8,1.84-30.52,7.76-27.2,28.25c0.03,0.2,0.02,0.4,0.06,0.6c4.45,25.75,15.95,46.95,40.43,58.55
		c17.67,8.37,33.9-0.1,38.77-19.05c2.67-10.39,1.39-19.34-4.3-28.38c-4.45-7.07-8.48-14.53-13.76-20.93
		C133.36,257.63,122.09,250.05,108.39,249.53z M246.42,202.45c-0.34,0-0.68,0-1.03,0c0,7,0,14.01,0,21.01c0.34,0,0.68,0,1.03,0
		C246.42,216.46,246.42,209.45,246.42,202.45z"/>
	<path class="st1" d="M73.78,159.92c0.45-5.11,5.35-9.26,10.25-8.69c5.22,0.61,8.42,5.02,7.79,10.71c-0.56,5.04-4.16,7.88-9.53,7.52
		C77.2,169.12,73.34,164.79,73.78,159.92z"/>
	<path class="st1" d="M103.23,198.67c0.11,5.16-3.66,9.04-8.91,9.18c-5.59,0.15-9.65-3.68-9.62-9.07c0.02-4.79,4.35-9.1,9.23-9.2
		C98.65,189.49,103.13,193.86,103.23,198.67z"/>
	<path class="st1" d="M117.7,403.39c-5.34-0.11-8.97-3.83-8.86-9.07c0.11-5.03,4.21-9.09,9.17-9.07c5.08,0.02,9.56,4.69,9.29,9.69
		C127.02,400.01,123.06,403.49,117.7,403.39z"/>
	<path class="st1" d="M427.52,173.94c5.05,0.06,9.51,4.71,9.3,9.69c-0.21,4.95-4.36,8.68-9.55,8.58c-5.47-0.11-8.68-3.52-8.61-9.15
		C418.72,177.76,422.48,173.88,427.52,173.94z"/>
	<path class="st1" d="M65.71,375.67c-5.1-0.13-9.06-4.2-8.99-9.21c0.07-5.25,4.47-9.2,9.8-9.08c5.54,0.12,8.51,5.2,8.42,10.2
		C74.86,372.36,70.75,375.8,65.71,375.67z"/>
	<path class="st1" d="M423.25,411.82c-5.31-0.09-9.16-3.98-8.96-9.07c0.19-5.04,4.47-9,9.46-8.76c5.52,0.26,8.8,3.75,8.7,9.26
		C432.34,408.82,429.01,411.92,423.25,411.82z"/>
	<path class="st1" d="M271.73,111.73c-4.32,0.09-8.82-4.66-8.95-9.44c-0.14-5.07,3.24-8.62,8.39-8.83c5.5-0.23,9.82,3.7,9.84,8.95
		C281.02,106.78,276.18,111.64,271.73,111.73z"/>
	<path class="st1" d="M459.73,356.23c4.77,0.16,8.93,4.42,8.66,8.87c-0.23,3.72-6.25,9.52-9.76,9.41c-4.9-0.16-8.89-4.65-8.54-9.6
		C450.43,359.99,454.8,356.06,459.73,356.23z"/>
	<path class="st1" d="M201.28,85.1c-0.14-6.7,2.03-9.53,7.24-9.42c4.82,0.1,9.08,4.49,9.06,9.35c-0.01,5.11-3.87,8.83-9.22,8.88
		C202.83,93.96,201.43,92.22,201.28,85.1z"/>
	<path class="st1" d="M93.63,416.59c-2.1,1.82-3.59,4.04-4.77,3.89c-1.64-0.22-3.05-2.21-4.56-3.44c1.41-1.43,2.61-3.55,4.29-4.05
		C89.62,412.68,91.38,414.89,93.63,416.59z"/>
	<path class="st1" d="M261.27,132c-2.42,1.78-3.84,3.63-5.12,3.55c-1.4-0.09-2.69-1.98-4.02-3.08c1.27-1.39,2.34-3.47,3.89-3.92
		C257.04,128.24,258.76,130.26,261.27,132z"/>
	<path class="st1" d="M433.91,444.86c-1.81-2.38-3.79-3.85-3.74-5.24c0.05-1.42,2.11-2.76,3.29-4.13c1.21,1.54,2.91,2.93,3.42,4.67
		C437.15,441.11,435.38,442.65,433.91,444.86z"/>
	<path class="st1" d="M461.3,197.5c-2.47,1.64-4,3.47-5.35,3.34c-1.32-0.13-3.37-2.21-3.42-3.49c-0.05-1.34,2.18-4.02,2.95-3.86
		C457.24,193.83,458.72,195.58,461.3,197.5z"/>
	<path class="st1" d="M413.9,148.32c-1.68-2.56-3.47-4.08-3.3-5.35c0.17-1.37,2.17-2.51,3.37-3.76c1.29,1.31,3.32,2.46,3.62,3.97
		C417.81,144.29,415.77,145.85,413.9,148.32z"/>
	<path class="st1" d="M247.02,75.62c-3.09,1.65-4.86,3.39-6.18,3.09c-1.31-0.3-2.15-2.64-3.2-4.08c1.12-0.78,2.34-2.3,3.34-2.17
		C242.58,72.67,244.04,73.97,247.02,75.62z"/>
	<path class="st1" d="M118.92,186.01c-1.79,1.52-3.54,3.49-3.92,3.25c-1.61-1-2.81-2.65-4.16-4.07c1.46-1.3,2.93-2.61,4.39-3.91
		C116.28,182.62,117.33,183.96,118.92,186.01z"/>
	<path class="st1" d="M117.59,143.43c1.39,2.48,2.88,3.94,2.63,4.98c-0.38,1.53-1.99,2.75-3.08,4.1c-1.19-1.31-3.2-2.54-3.34-3.95
		C113.68,147.34,115.67,145.9,117.59,143.43z"/>
	<path class="st1" d="M64.2,187.39c1.48,2.17,3.32,3.83,3,4.59c-0.65,1.55-2.4,3.52-3.8,3.61c-1.32,0.08-2.78-2.04-4.17-3.2
		C60.63,190.99,62.02,189.58,64.2,187.39z"/>
	<path class="st1" d="M101.49,380.3c-1.99,0.78-3.95,1.99-5.99,2.12c-0.72,0.04-1.6-2.55-2.41-3.94c2.5-0.38,5.01-0.76,7.51-1.14
		C100.9,378.32,101.19,379.31,101.49,380.3z"/>
	<path class="st1" d="M468.06,409.34c-1.44-1.98-3.14-3.72-2.89-4.08c0.97-1.39,2.48-2.56,4.03-3.28c0.35-0.16,2.58,2.09,2.4,2.89
		C471.32,406.22,469.79,407.3,468.06,409.34z"/>
	<path class="st1" d="M46.87,342.71c-0.84-1.77-1.98-3.28-2.14-4.88c-0.1-0.95,1.33-2.9,2.11-2.92c1.82-0.05,3.67,0.8,6.09,1.43
		C50.56,338.83,49.07,340.39,46.87,342.71z"/>
	<path class="st1" d="M434.02,375.2c1.77-0.72,3.67-2.19,5.26-1.92c1.28,0.22,2.2,2.56,3.28,3.97c-0.41,0.48-0.81,0.95-1.22,1.43
		c-2.29-0.49-4.58-0.99-6.87-1.48C434.32,376.53,434.17,375.87,434.02,375.2z"/>
	<ellipse class="st1" cx="245.91" cy="212.95" rx="0.73" ry="14.86"/>
</g>
</svg>
