<?xml version="1.0" encoding="utf-8"?>
<!-- Generator: Adobe Illustrator 24.0.0, SVG Export Plug-In . SVG Version: 6.00 Build 0)  -->
<svg version="1.1" id="Layer_1" xmlns="http://www.w3.org/2000/svg" xmlns:xlink="http://www.w3.org/1999/xlink" x="0px" y="0px"
	 viewBox="0 0 744.96 208.34" style="enable-background:new 0 0 744.96 208.34;" xml:space="preserve">
<style type="text/css">
	.st0{fill:#FFFFFF;}
	.st1{fill:#070707;}
	.st2{fill:#121212;}
</style>
<g>
	<path class="st0" d="M962.27-378.38c2.66,15.14,5.87,29.42,7.45,43.88c0.89,8.12,0.24,16.82-1.75,24.75
		c-3.53,14.05-15.64,23.07-30.16,22.78c-8.02-0.16-16.55-1.17-23.89-4.15c-37.08-15.02-72.12-6.61-107.04,7.5
		c-13.49,5.45-27.16,10.84-41.22,14.38c-8.47,2.13-17.96,1.64-26.79,0.6c-20.87-2.46-34.61-14.66-41.91-34.09
		c-8.07-21.46-7.34-43.45-3.22-65.56c0.33-1.79,0.6-3.6,1-6.02c-18.07,0.08-33.26-6.43-46.09-17.92
		c-28.37-25.41-42.16-56.99-36.84-95.22c5.37-38.55,42.92-58.23,78.27-41.91c2.46,1.13,4.87,2.37,7.76,3.79
		c-1.77-8.22-3.94-15.98-5.05-23.88c-2.88-20.43-1.97-40.53,7.51-59.42c14.83-29.54,46.98-41.12,77.06-27.43
		c25.07,11.41,40.08,32.07,50.41,56.73c1.02,2.43,1.97,4.89,3.46,8.59c1.12-3.24,1.87-5.29,2.55-7.36
		c5.7-17.57,14.29-33.44,27.63-46.44c33.5-32.65,81.97-22.94,100.19,20.16c9.07,21.47,9.93,43.82,5.99,66.54
		c-0.34,1.98-0.68,3.97-0.79,4.6c10.66-1.77,21.31-5.36,31.79-4.93c27.68,1.13,48.23,21.33,50.74,50.44
		c3.66,42.34-12.95,75.85-48.01,99.84C989.78-380.24,976.58-377.1,962.27-378.38z M726.57-358.63c1.71,8.53,2.59,17.33,5.33,25.51
		c3.84,11.46,12.58,17.06,24.59,16.39c5.71-0.32,11.44-2.05,16.95-3.79c5.56-1.76,10.8-4.5,16.28-6.54
		c37.54-13.96,75.44-19.54,114.5-5.85c11.79,4.13,21.63-3.15,22.75-16.8c0.65-7.99,0.67-16.47-1.26-24.17
		c-5.57-22.21-13.55-43.76-32.05-58.67c-31.7-25.57-68.32-30.64-105.73-17.69C754.58-438.68,726.13-407.27,726.57-358.63z
		 M749.39-598.9c-8.92-0.15-16.74,3.03-24.15,7.65c-4.36,2.72-6.8,6.32-7.51,11.57c-3.06,22.7,1.97,43.69,13.46,63.16
		c8.13,13.79,18.69,25.28,34.49,30.45c20.11,6.58,41.73-7.65,41.98-28.77c0.29-24.4-5.98-47.26-22.38-66.23
		C775.91-591.9,764.22-598.71,749.39-598.9z M931.33-562.04c-1.38-5.36-3.03-16.19-6.97-26.1c-5.21-13.09-16.13-19.29-29.02-16.68
		c-14.96,3.03-28.07,9.43-33.99,25.36c-9.55,25.71-12.74,51.65,1.29,76.4c13.19,23.28,31.55,24.96,49.13,4.29
		C925.83-515.31,930.18-535.41,931.33-562.04z M1016.89-482.38c-1.17-4.91-2.62-13.77-5.58-22.09c-1.14-3.22-5.29-6.49-8.75-7.57
		c-9.86-3.08-19.04,0.3-27.29,5.7c-18.01,11.81-28.49,28.94-33.69,49.52c-3.03,12-3.34,24.01,1.52,35.66
		c6.04,14.46,15.68,18.73,30.06,12.9c5.14-2.08,10.2-5,14.41-8.58C1006.47-432.89,1015.54-453.74,1016.89-482.38z M665.01-494.82
		c-22.83,1.92-31.95,8.12-28.48,29.57c0.03,0.21,0.02,0.42,0.06,0.62c4.66,26.96,16.69,49.15,42.32,61.29
		c18.49,8.76,35.48-0.11,40.59-19.94c2.8-10.87,1.45-20.25-4.5-29.71c-4.66-7.4-8.88-15.21-14.4-21.91
		C691.16-486.35,679.36-494.29,665.01-494.82z M809.51-544.12c-0.36,0-0.72,0-1.07,0c0,7.33,0,14.67,0,22c0.36,0,0.72,0,1.07,0
		C809.51-529.45,809.51-536.79,809.51-544.12z"/>
	<path class="st0" d="M628.78-588.64c0.47-5.35,5.6-9.7,10.73-9.1c5.46,0.64,8.82,5.25,8.15,11.21c-0.59,5.28-4.35,8.25-9.98,7.88
		C632.37-579,628.33-583.53,628.78-588.64z"/>
	<path class="st0" d="M659.61-548.07c0.11,5.4-3.83,9.47-9.33,9.61c-5.85,0.16-10.1-3.85-10.08-9.49c0.03-5.01,4.56-9.53,9.66-9.63
		C654.82-557.68,659.51-553.11,659.61-548.07z"/>
	<path class="st0" d="M674.76-333.76c-5.59-0.11-9.39-4.01-9.27-9.5c0.11-5.27,4.41-9.52,9.6-9.5c5.32,0.02,10.01,4.91,9.72,10.14
		C684.52-337.3,680.38-333.65,674.76-333.76z"/>
	<path class="st0" d="M999.09-573.96c5.28,0.06,9.95,4.93,9.73,10.15c-0.22,5.18-4.57,9.09-10,8.98c-5.73-0.11-9.08-3.68-9.01-9.58
		C989.88-569.96,993.82-574.02,999.09-573.96z"/>
	<path class="st0" d="M620.34-362.78c-5.34-0.14-9.49-4.39-9.41-9.64c0.08-5.5,4.67-9.63,10.26-9.5c5.8,0.13,8.91,5.45,8.82,10.68
		C629.92-366.25,625.61-362.64,620.34-362.78z"/>
	<path class="st0" d="M994.63-324.93c-5.56-0.09-9.59-4.17-9.38-9.49c0.2-5.28,4.68-9.42,9.91-9.17c5.78,0.27,9.22,3.93,9.11,9.7
		C1004.15-328.08,1000.66-324.83,994.63-324.93z"/>
	<path class="st0" d="M836.01-639.09c-4.53,0.09-9.24-4.88-9.37-9.88c-0.14-5.3,3.39-9.02,8.78-9.24c5.76-0.24,10.28,3.87,10.3,9.37
		C845.73-644.27,840.67-639.18,836.01-639.09z"/>
	<path class="st0" d="M1032.82-383.13c5,0.17,9.35,4.63,9.07,9.29c-0.24,3.89-6.54,9.97-10.22,9.85c-5.13-0.17-9.31-4.86-8.94-10.05
		C1023.08-379.19,1027.65-383.31,1032.82-383.13z"/>
	<path class="st0" d="M762.26-666.96c-0.14-7.02,2.13-9.97,7.58-9.86c5.05,0.1,9.5,4.7,9.49,9.78c-0.01,5.35-4.05,9.24-9.65,9.29
		C763.88-657.68,762.41-659.51,762.26-666.96z"/>
	<path class="st0" d="M649.56-319.95c-2.2,1.9-3.76,4.23-4.99,4.07c-1.72-0.23-3.19-2.31-4.77-3.61c1.47-1.5,2.73-3.72,4.49-4.24
		C645.36-324.03,647.21-321.73,649.56-319.95z"/>
	<path class="st0" d="M825.06-617.86c-2.54,1.87-4.02,3.8-5.36,3.71c-1.47-0.1-2.81-2.07-4.21-3.22c1.33-1.45,2.45-3.63,4.07-4.11
		C820.63-621.8,822.43-619.69,825.06-617.86z"/>
	<path class="st0" d="M1005.79-290.35c-1.89-2.49-3.97-4.03-3.91-5.49c0.06-1.48,2.21-2.89,3.44-4.33c1.26,1.61,3.05,3.07,3.58,4.89
		C1009.18-294.28,1007.33-292.66,1005.79-290.35z"/>
	<path class="st0" d="M1034.46-549.3c-2.58,1.72-4.19,3.63-5.6,3.49c-1.38-0.13-3.53-2.31-3.58-3.66c-0.05-1.4,2.28-4.21,3.09-4.05
		C1030.21-553.13,1031.75-551.31,1034.46-549.3z"/>
	<path class="st0" d="M984.84-600.78c-1.76-2.68-3.63-4.27-3.46-5.6c0.18-1.44,2.27-2.63,3.53-3.93c1.35,1.37,3.47,2.58,3.79,4.15
		C988.93-605,986.8-603.37,984.84-600.78z"/>
	<path class="st0" d="M810.14-676.89c-3.23,1.73-5.09,3.55-6.46,3.23c-1.37-0.31-2.25-2.76-3.35-4.27c1.17-0.82,2.45-2.41,3.49-2.27
		C805.5-679.98,807.03-678.61,810.14-676.89z"/>
	<path class="st0" d="M676.04-561.33c-1.87,1.59-3.7,3.65-4.1,3.41c-1.68-1.05-2.94-2.78-4.35-4.26c1.53-1.36,3.07-2.73,4.6-4.09
		C673.28-564.87,674.37-563.47,676.04-561.33z"/>
	<path class="st0" d="M674.65-605.9c1.45,2.6,3.02,4.13,2.75,5.21c-0.39,1.6-2.09,2.88-3.23,4.3c-1.25-1.37-3.35-2.66-3.49-4.13
		C670.56-601.81,672.63-603.31,674.65-605.9z"/>
	<path class="st0" d="M618.76-559.88c1.55,2.27,3.47,4.01,3.14,4.8c-0.68,1.62-2.51,3.69-3.98,3.77c-1.38,0.08-2.91-2.14-4.37-3.34
		C615.01-556.12,616.48-557.59,618.76-559.88z"/>
	<path class="st0" d="M657.79-357.93c-2.08,0.82-4.14,2.09-6.27,2.22c-0.75,0.05-1.68-2.67-2.52-4.13c2.62-0.4,5.24-0.79,7.86-1.19
		C657.17-360,657.48-358.97,657.79-357.93z"/>
	<path class="st0" d="M1041.54-327.53c-1.51-2.08-3.29-3.89-3.02-4.28c1.02-1.46,2.59-2.68,4.22-3.43c0.36-0.17,2.7,2.18,2.51,3.03
		C1044.94-330.8,1043.34-329.67,1041.54-327.53z"/>
	<path class="st0" d="M600.61-397.29c-0.87-1.85-2.07-3.43-2.24-5.11c-0.1-0.99,1.39-3.04,2.21-3.06c1.91-0.05,3.84,0.83,6.37,1.5
		C604.48-401.35,602.92-399.71,600.61-397.29z"/>
	<path class="st0" d="M1005.9-363.27c1.85-0.75,3.84-2.29,5.51-2.01c1.34,0.23,2.3,2.68,3.43,4.15c-0.42,0.5-0.85,1-1.27,1.5
		c-2.4-0.52-4.79-1.03-7.19-1.55C1006.21-361.88,1006.05-362.57,1005.9-363.27z"/>
	<ellipse class="st0" cx="808.98" cy="-533.12" rx="0.76" ry="15.56"/>
</g>
<g>
	<path class="st1" d="M403.06-375c2.54,14.47,5.61,28.11,7.11,41.92c0.85,7.76,0.23,16.07-1.67,23.64
		c-3.38,13.42-14.94,22.04-28.81,21.76c-7.66-0.15-15.81-1.12-22.82-3.96c-35.42-14.35-68.89-6.32-102.25,7.16
		c-12.89,5.21-25.95,10.35-39.38,13.73c-8.09,2.04-17.16,1.57-25.59,0.57c-19.93-2.35-33.06-14-40.04-32.56
		c-7.71-20.5-7.02-41.51-3.08-62.63c0.32-1.71,0.57-3.44,0.96-5.75c-17.26,0.08-31.77-6.14-44.03-17.12
		c-27.1-24.27-40.27-54.44-35.19-90.96c5.13-36.83,40.99-55.63,74.77-40.03c2.35,1.08,4.65,2.27,7.42,3.62
		c-1.69-7.85-3.76-15.26-4.83-22.81c-2.75-19.51-1.89-38.72,7.17-56.76c14.16-28.21,44.88-39.28,73.61-26.2
		c23.95,10.9,38.28,30.63,48.15,54.19c0.97,2.32,1.89,4.67,3.31,8.2c1.07-3.09,1.79-5.05,2.43-7.03
		c5.45-16.78,13.66-31.95,26.39-44.36c32-31.19,78.31-21.92,95.71,19.26c8.67,20.51,9.48,41.86,5.72,63.56
		c-0.33,1.9-0.65,3.79-0.75,4.4c10.18-1.69,20.35-5.12,30.37-4.71c26.44,1.08,46.07,20.37,48.47,48.18
		c3.5,40.44-12.37,72.46-45.86,95.38C429.34-376.77,416.73-373.77,403.06-375z M177.92-356.13c1.63,8.14,2.48,16.55,5.09,24.37
		c3.66,10.95,12.02,16.29,23.49,15.66c5.46-0.3,10.93-1.96,16.19-3.62c5.31-1.68,10.31-4.3,15.55-6.24
		c35.86-13.33,72.07-18.67,109.38-5.59c11.26,3.95,20.66-3.01,21.73-16.04c0.63-7.64,0.64-15.73-1.21-23.09
		c-5.32-21.21-12.95-41.8-30.61-56.05c-30.28-24.42-65.26-29.27-101-16.9C204.67-432.6,177.5-402.59,177.92-356.13z M199.71-585.65
		c-8.52-0.14-15.99,2.9-23.07,7.31c-4.16,2.6-6.5,6.03-7.17,11.05c-2.92,21.69,1.88,41.73,12.86,60.33
		c7.77,13.17,17.86,24.15,32.95,29.09c19.21,6.29,39.87-7.31,40.11-27.48c0.28-23.31-5.71-45.15-21.37-63.26
		C225.05-578.96,213.88-585.47,199.71-585.65z M373.51-550.44c-1.31-5.12-2.89-15.46-6.66-24.93c-4.97-12.5-15.4-18.43-27.72-15.94
		c-14.29,2.89-26.82,9.01-32.47,24.22c-9.13,24.56-12.17,49.33,1.23,72.98c12.6,22.24,30.14,23.84,46.93,4.1
		C368.26-505.8,372.41-525,373.51-550.44z M455.24-474.34c-1.11-4.69-2.5-13.15-5.33-21.1c-1.09-3.08-5.06-6.2-8.36-7.23
		c-9.42-2.94-18.19,0.28-26.06,5.44c-17.21,11.28-27.22,27.64-32.18,47.3c-2.89,11.46-3.19,22.94,1.46,34.06
		c5.77,13.81,14.98,17.89,28.72,12.32c4.91-1.99,9.74-4.78,13.77-8.2C445.29-427.07,453.95-446.98,455.24-474.34z M119.11-486.23
		c-21.8,1.84-30.52,7.76-27.2,28.25c0.03,0.2,0.02,0.4,0.06,0.6c4.45,25.75,15.95,46.95,40.43,58.55
		c17.67,8.37,33.9-0.1,38.77-19.05c2.67-10.39,1.39-19.34-4.3-28.38c-4.45-7.07-8.48-14.53-13.76-20.93
		C144.09-478.14,132.81-485.72,119.11-486.23z M257.14-533.32c-0.34,0-0.68,0-1.03,0c0,7,0,14.01,0,21.01c0.34,0,0.68,0,1.03,0
		C257.14-519.31,257.14-526.32,257.14-533.32z"/>
	<path class="st1" d="M84.5-575.85c0.45-5.11,5.35-9.26,10.25-8.69c5.22,0.61,8.42,5.02,7.79,10.71c-0.56,5.04-4.16,7.88-9.53,7.52
		C87.92-566.64,84.07-570.97,84.5-575.85z"/>
	<path class="st1" d="M113.95-537.1c0.11,5.16-3.66,9.04-8.91,9.18c-5.59,0.15-9.65-3.68-9.62-9.07c0.02-4.79,4.35-9.1,9.23-9.2
		C109.38-546.28,113.85-541.91,113.95-537.1z"/>
	<path class="st1" d="M128.42-332.38c-5.34-0.11-8.97-3.83-8.86-9.07c0.11-5.03,4.21-9.09,9.17-9.07c5.08,0.02,9.56,4.69,9.29,9.69
		C137.74-335.76,133.79-332.27,128.42-332.38z"/>
	<path class="st1" d="M438.24-561.82c5.05,0.06,9.51,4.71,9.3,9.69c-0.21,4.95-4.36,8.68-9.55,8.58c-5.47-0.11-8.68-3.52-8.61-9.15
		C429.44-558.01,433.21-561.88,438.24-561.82z"/>
	<path class="st1" d="M76.43-360.1c-5.1-0.13-9.06-4.2-8.99-9.21c0.07-5.25,4.47-9.2,9.8-9.08c5.54,0.12,8.51,5.2,8.42,10.2
		C85.59-363.41,81.47-359.96,76.43-360.1z"/>
	<path class="st1" d="M433.97-323.94c-5.31-0.09-9.16-3.98-8.96-9.07c0.19-5.04,4.47-9,9.46-8.76c5.52,0.26,8.8,3.75,8.7,9.26
		C443.07-326.95,439.74-323.85,433.97-323.94z"/>
	<path class="st1" d="M282.45-624.04c-4.32,0.09-8.82-4.66-8.95-9.44c-0.14-5.07,3.24-8.62,8.39-8.83c5.5-0.23,9.82,3.7,9.84,8.95
		C291.74-628.99,286.91-624.13,282.45-624.04z"/>
	<path class="st1" d="M470.46-379.53c4.77,0.16,8.93,4.42,8.66,8.87c-0.23,3.72-6.25,9.52-9.76,9.41c-4.9-0.16-8.89-4.65-8.54-9.6
		C461.16-375.78,465.52-379.7,470.46-379.53z"/>
	<path class="st1" d="M212-650.66c-0.14-6.7,2.03-9.53,7.24-9.42c4.82,0.1,9.08,4.49,9.06,9.35c-0.01,5.11-3.87,8.83-9.22,8.88
		C213.55-641.8,212.15-643.54,212-650.66z"/>
	<path class="st1" d="M104.35-319.18c-2.1,1.82-3.59,4.04-4.77,3.89c-1.64-0.22-3.05-2.21-4.56-3.44c1.41-1.43,2.61-3.55,4.29-4.05
		C100.34-323.08,102.1-320.88,104.35-319.18z"/>
	<path class="st1" d="M271.99-603.76c-2.42,1.78-3.84,3.63-5.12,3.55c-1.4-0.09-2.69-1.98-4.02-3.08c1.27-1.39,2.34-3.47,3.89-3.92
		C267.77-607.52,269.48-605.51,271.99-603.76z"/>
	<path class="st1" d="M444.63-290.9c-1.81-2.38-3.79-3.85-3.74-5.24c0.05-1.42,2.11-2.76,3.29-4.13c1.21,1.54,2.91,2.93,3.42,4.67
		C447.88-294.66,446.11-293.12,444.63-290.9z"/>
	<path class="st1" d="M472.02-538.27c-2.47,1.64-4,3.47-5.35,3.34c-1.32-0.13-3.37-2.21-3.42-3.49c-0.05-1.34,2.18-4.02,2.95-3.86
		C467.97-541.93,469.44-540.19,472.02-538.27z"/>
	<path class="st1" d="M424.63-587.45c-1.68-2.56-3.47-4.08-3.3-5.35c0.17-1.37,2.17-2.51,3.37-3.76c1.29,1.31,3.32,2.46,3.62,3.97
		C428.53-591.48,426.5-589.92,424.63-587.45z"/>
	<path class="st1" d="M257.74-660.15c-3.09,1.65-4.86,3.39-6.18,3.09c-1.31-0.3-2.15-2.64-3.2-4.08c1.12-0.78,2.34-2.3,3.34-2.17
		C253.31-663.1,254.77-661.79,257.74-660.15z"/>
	<path class="st1" d="M129.65-549.76c-1.79,1.52-3.54,3.49-3.92,3.25c-1.61-1-2.81-2.65-4.16-4.07c1.46-1.3,2.93-2.61,4.39-3.91
		C127.01-553.15,128.05-551.81,129.65-549.76z"/>
	<path class="st1" d="M128.32-592.33c1.39,2.48,2.88,3.94,2.63,4.98c-0.38,1.53-1.99,2.75-3.08,4.1c-1.19-1.31-3.2-2.54-3.34-3.95
		C124.41-588.43,126.39-589.87,128.32-592.33z"/>
	<path class="st1" d="M74.93-548.37c1.48,2.17,3.32,3.83,3,4.59c-0.65,1.55-2.4,3.52-3.8,3.61c-1.32,0.08-2.78-2.04-4.17-3.2
		C71.35-544.78,72.75-546.18,74.93-548.37z"/>
	<path class="st1" d="M112.21-355.47c-1.99,0.78-3.95,1.99-5.99,2.12c-0.72,0.04-1.6-2.55-2.41-3.94c2.5-0.38,5.01-0.76,7.51-1.14
		C111.62-357.44,111.92-356.45,112.21-355.47z"/>
	<path class="st1" d="M478.79-326.42c-1.44-1.98-3.14-3.72-2.89-4.08c0.97-1.39,2.48-2.56,4.03-3.28c0.35-0.16,2.58,2.09,2.4,2.89
		C482.04-329.54,480.51-328.46,478.79-326.42z"/>
	<path class="st1" d="M57.59-393.06c-0.84-1.77-1.98-3.28-2.14-4.88c-0.1-0.95,1.33-2.9,2.11-2.92c1.82-0.05,3.67,0.8,6.09,1.43
		C61.29-396.94,59.8-395.37,57.59-393.06z"/>
	<path class="st1" d="M444.74-360.57c1.77-0.72,3.67-2.19,5.26-1.92c1.28,0.22,2.2,2.56,3.28,3.97c-0.41,0.48-0.81,0.95-1.22,1.43
		c-2.29-0.49-4.58-0.99-6.87-1.48C445.04-359.23,444.89-359.9,444.74-360.57z"/>
	<ellipse class="st1" cx="256.63" cy="-522.81" rx="0.73" ry="14.86"/>
</g>
<text transform="matrix(1 0 0 1 -233.5702 442.224)" style="font-family:'AquaticPersonalUse'; font-size:101.0008px;">Paws Zone</text>
<g>
	<path class="st0" d="M943.14,540.86c0.67,3.8,1.47,7.37,1.87,11c0.22,2.04,0.06,4.22-0.44,6.2c-0.89,3.52-3.92,5.78-7.56,5.71
		c-2.01-0.04-4.15-0.29-5.99-1.04c-9.29-3.77-18.08-1.66-26.83,1.88c-3.38,1.37-6.81,2.72-10.33,3.6c-2.12,0.53-4.5,0.41-6.71,0.15
		c-5.23-0.62-8.67-3.67-10.51-8.54c-2.02-5.38-1.84-10.89-0.81-16.43c0.08-0.45,0.15-0.9,0.25-1.51c-4.53,0.02-8.34-1.61-11.55-4.49
		c-7.11-6.37-10.57-14.28-9.23-23.86c1.35-9.66,10.76-14.6,19.62-10.5c0.62,0.28,1.22,0.59,1.95,0.95c-0.44-2.06-0.99-4-1.27-5.99
		c-0.72-5.12-0.49-10.16,1.88-14.89c3.72-7.4,11.77-10.31,19.31-6.88c6.28,2.86,10.04,8.04,12.63,14.22
		c0.26,0.61,0.49,1.22,0.87,2.15c0.28-0.81,0.47-1.33,0.64-1.85c1.43-4.4,3.58-8.38,6.92-11.64c8.4-8.18,20.55-5.75,25.11,5.05
		c2.27,5.38,2.49,10.98,1.5,16.68c-0.09,0.5-0.17,0.99-0.2,1.15c2.67-0.44,5.34-1.34,7.97-1.24c6.94,0.28,12.09,5.35,12.72,12.64
		c0.92,10.61-3.25,19.01-12.03,25.02C950.04,540.39,946.73,541.18,943.14,540.86z M884.07,545.81c0.43,2.14,0.65,4.34,1.34,6.39
		c0.96,2.87,3.15,4.28,6.16,4.11c1.43-0.08,2.87-0.51,4.25-0.95c1.39-0.44,2.71-1.13,4.08-1.64c9.41-3.5,18.91-4.9,28.7-1.47
		c2.95,1.04,5.42-0.79,5.7-4.21c0.16-2,0.17-4.13-0.32-6.06c-1.39-5.57-3.4-10.97-8.03-14.71c-7.94-6.41-17.12-7.68-26.5-4.43
		C891.09,525.75,883.96,533.62,884.07,545.81z M889.79,485.59c-2.24-0.04-4.2,0.76-6.05,1.92c-1.09,0.68-1.71,1.58-1.88,2.9
		c-0.77,5.69,0.49,10.95,3.37,15.83c2.04,3.46,4.69,6.34,8.65,7.63c5.04,1.65,10.46-1.92,10.52-7.21c0.07-6.12-1.5-11.85-5.61-16.6
		C896.43,487.34,893.5,485.64,889.79,485.59z M935.39,494.83c-0.34-1.34-0.76-4.06-1.75-6.54c-1.31-3.28-4.04-4.83-7.27-4.18
		c-3.75,0.76-7.04,2.36-8.52,6.35c-2.39,6.44-3.19,12.94,0.32,19.15c3.31,5.83,7.91,6.25,12.31,1.08
		C934.01,506.54,935.1,501.5,935.39,494.83z M956.83,514.8c-0.29-1.23-0.66-3.45-1.4-5.54c-0.29-0.81-1.33-1.63-2.19-1.9
		c-2.47-0.77-4.77,0.07-6.84,1.43c-4.51,2.96-7.14,7.25-8.44,12.41c-0.76,3.01-0.84,6.02,0.38,8.94c1.52,3.62,3.93,4.69,7.53,3.23
		c1.29-0.52,2.56-1.25,3.61-2.15C954.22,527.2,956.49,521.97,956.83,514.8z M868.64,511.68c-5.72,0.48-8.01,2.04-7.14,7.41
		c0.01,0.05,0.01,0.1,0.01,0.16c1.17,6.76,4.18,12.32,10.61,15.36c4.64,2.2,8.89-0.03,10.17-5c0.7-2.72,0.36-5.07-1.13-7.45
		c-1.17-1.86-2.22-3.81-3.61-5.49C875.19,513.8,872.23,511.81,868.64,511.68z M904.86,499.32c-0.09,0-0.18,0-0.27,0
		c0,1.84,0,3.68,0,5.51c0.09,0,0.18,0,0.27,0C904.86,503,904.86,501.16,904.86,499.32z"/>
	<path class="st0" d="M859.56,488.16c0.12-1.34,1.4-2.43,2.69-2.28c1.37,0.16,2.21,1.32,2.04,2.81c-0.15,1.32-1.09,2.07-2.5,1.97
		C860.46,490.58,859.44,489.44,859.56,488.16z"/>
	<path class="st0" d="M867.28,498.33c0.03,1.35-0.96,2.37-2.34,2.41c-1.47,0.04-2.53-0.96-2.53-2.38c0.01-1.26,1.14-2.39,2.42-2.41
		C866.08,495.92,867.26,497.07,867.28,498.33z"/>
	<path class="st0" d="M871.08,552.04c-1.4-0.03-2.35-1-2.32-2.38c0.03-1.32,1.11-2.39,2.41-2.38c1.33,0.01,2.51,1.23,2.44,2.54
		C873.53,551.16,872.49,552.07,871.08,552.04z"/>
	<path class="st0" d="M952.37,491.84c1.32,0.01,2.49,1.24,2.44,2.54c-0.06,1.3-1.14,2.28-2.51,2.25c-1.44-0.03-2.28-0.92-2.26-2.4
		C950.06,492.84,951.05,491.83,952.37,491.84z"/>
	<path class="st0" d="M857.44,544.77c-1.34-0.04-2.38-1.1-2.36-2.42c0.02-1.38,1.17-2.41,2.57-2.38c1.45,0.03,2.23,1.37,2.21,2.68
		C859.84,543.9,858.76,544.81,857.44,544.77z"/>
	<path class="st0" d="M951.25,554.26c-1.39-0.02-2.4-1.04-2.35-2.38c0.05-1.32,1.17-2.36,2.48-2.3c1.45,0.07,2.31,0.98,2.28,2.43
		C953.64,553.47,952.76,554.28,951.25,554.26z"/>
	<path class="st0" d="M911.5,475.52c-1.13,0.02-2.31-1.22-2.35-2.48c-0.04-1.33,0.85-2.26,2.2-2.32c1.44-0.06,2.58,0.97,2.58,2.35
		C913.93,474.22,912.66,475.49,911.5,475.52z"/>
	<path class="st0" d="M960.82,539.67c1.25,0.04,2.34,1.16,2.27,2.33c-0.06,0.98-1.64,2.5-2.56,2.47c-1.29-0.04-2.33-1.22-2.24-2.52
		C958.38,540.66,959.53,539.63,960.82,539.67z"/>
	<path class="st0" d="M893.01,468.53c-0.04-1.76,0.53-2.5,1.9-2.47c1.26,0.02,2.38,1.18,2.38,2.45c0,1.34-1.02,2.32-2.42,2.33
		C893.42,470.86,893.05,470.4,893.01,468.53z"/>
	<path class="st0" d="M864.77,555.51c-0.55,0.48-0.94,1.06-1.25,1.02c-0.43-0.06-0.8-0.58-1.2-0.9c0.37-0.38,0.68-0.93,1.13-1.06
		C863.71,554.48,864.18,555.06,864.77,555.51z"/>
	<path class="st0" d="M908.75,480.84c-0.64,0.47-1.01,0.95-1.34,0.93c-0.37-0.02-0.71-0.52-1.06-0.81c0.33-0.36,0.61-0.91,1.02-1.03
		C907.64,479.85,908.09,480.38,908.75,480.84z"/>
	<path class="st0" d="M954.05,562.93c-0.47-0.63-1-1.01-0.98-1.38c0.01-0.37,0.55-0.72,0.86-1.08c0.32,0.4,0.76,0.77,0.9,1.23
		C954.9,561.94,954.44,562.34,954.05,562.93z"/>
	<path class="st0" d="M961.24,498.02c-0.65,0.43-1.05,0.91-1.4,0.88c-0.35-0.03-0.88-0.58-0.9-0.92c-0.01-0.35,0.57-1.06,0.78-1.01
		C960.17,497.06,960.56,497.52,961.24,498.02z"/>
	<path class="st0" d="M948.8,485.12c-0.44-0.67-0.91-1.07-0.87-1.4c0.05-0.36,0.57-0.66,0.88-0.99c0.34,0.34,0.87,0.65,0.95,1.04
		C949.82,484.06,949.29,484.47,948.8,485.12z"/>
	<path class="st0" d="M905.01,466.04c-0.81,0.43-1.28,0.89-1.62,0.81c-0.34-0.08-0.56-0.69-0.84-1.07c0.29-0.2,0.61-0.6,0.88-0.57
		C903.85,465.27,904.23,465.61,905.01,466.04z"/>
	<path class="st0" d="M871.4,495.01c-0.47,0.4-0.93,0.92-1.03,0.85c-0.42-0.26-0.74-0.7-1.09-1.07c0.38-0.34,0.77-0.68,1.15-1.03
		C870.71,494.12,870.98,494.47,871.4,495.01z"/>
	<path class="st0" d="M871.05,483.84c0.36,0.65,0.76,1.04,0.69,1.31c-0.1,0.4-0.52,0.72-0.81,1.08c-0.31-0.34-0.84-0.67-0.88-1.04
		C870.03,484.86,870.55,484.48,871.05,483.84z"/>
	<path class="st0" d="M857.05,495.37c0.39,0.57,0.87,1,0.79,1.2c-0.17,0.41-0.63,0.92-1,0.95c-0.35,0.02-0.73-0.54-1.09-0.84
		C856.11,496.31,856.47,495.95,857.05,495.37z"/>
	<path class="st0" d="M866.83,545.99c-0.52,0.21-1.04,0.52-1.57,0.56c-0.19,0.01-0.42-0.67-0.63-1.03c0.66-0.1,1.31-0.2,1.97-0.3
		C866.67,545.47,866.75,545.73,866.83,545.99z"/>
	<path class="st0" d="M963.01,553.61c-0.38-0.52-0.82-0.98-0.76-1.07c0.26-0.36,0.65-0.67,1.06-0.86c0.09-0.04,0.68,0.55,0.63,0.76
		C963.86,552.79,963.46,553.07,963.01,553.61z"/>
	<path class="st0" d="M852.5,536.12c-0.22-0.46-0.52-0.86-0.56-1.28c-0.03-0.25,0.35-0.76,0.55-0.77c0.48-0.01,0.96,0.21,1.6,0.38
		C853.47,535.1,853.08,535.52,852.5,536.12z"/>
	<path class="st0" d="M954.08,544.65c0.46-0.19,0.96-0.58,1.38-0.5c0.34,0.06,0.58,0.67,0.86,1.04c-0.11,0.13-0.21,0.25-0.32,0.38
		c-0.6-0.13-1.2-0.26-1.8-0.39C954.16,545,954.12,544.82,954.08,544.65z"/>
	<ellipse class="st0" cx="904.72" cy="502.08" rx="0.19" ry="3.9"/>
</g>
<g>
	<path class="st0" d="M825.64,587.99c2.67,2.34,3.9,6.28,3.16,10.01c-0.66,3.2-2.75,6.11-5.87,8.21c-2.75,1.85-5.62,2.46-8,2.59
		c0.04,1.6,0.08,3.2,0.16,4.8l-7.14,0.33c-0.37-7.51-0.25-15.1,0.29-22.61l-1.72-5.21c4.19-1.39,8.66-1.68,12.97-0.82
		c1.64,0.33,4.06,0.98,6.07,2.75L825.64,587.99z M821.83,596.53c0.25-1.19-0.12-2.54-0.86-3.2c-0.53-0.49-1.44-0.86-2.79-1.11
		c-0.9-0.16-1.81-0.25-2.71-0.29c-0.25,3.2-0.41,6.4-0.45,9.6c1.23-0.08,2.67-0.41,3.98-1.31c1.52-1.03,2.54-2.34,2.79-3.65
		L821.83,596.53z"/>
	<path class="st0" d="M846.04,592.42c2.58,6.57,4.31,13.54,5.13,20.72l-7.1,0.82c-0.12-1.03-0.29-2.01-0.45-3
		c-1.81,0.16-3.65,0.25-5.5,0.25c-1.11,0-2.22-0.04-3.32-0.08c-0.12,0.94-0.25,1.89-0.33,2.83l-7.14-0.66
		c0.45-4.68,1.44-9.27,2.95-13.7c1.48-4.39,3.45-8.58,5.87-12.51l1.07-1.68h5.58l0.98,2.05c0.78,1.64,1.52,3.32,2.17,5.01
		L846.04,592.42z M836.4,604c1.93,0.04,3.86,0,5.79-0.12c-0.7-2.79-1.56-5.54-2.59-8.21c-0.98,2.01-1.81,4.06-2.5,6.15
		c-0.25,0.7-0.45,1.44-0.66,2.17H836.4z"/>
	<path class="st0" d="M886.7,585.57v0.37c-0.12,3.28-0.33,7.59-0.78,11.9c-0.04,0.45-0.08,0.94-0.12,1.44
		c-0.33,3.28-0.7,6.98-2.38,10.05c-1.27,2.3-3.36,3.9-5.74,4.35c-0.45,0.08-0.9,0.12-1.35,0.12c-1.68,0-3.28-0.57-4.64-1.72
		c-0.86-0.7-1.56-1.52-2.13-2.42c-1.56,2.34-3.86,3.94-6.28,4.27c-0.33,0.04-0.66,0.08-0.98,0.08c-1.85,0-3.61-0.7-5.05-2.05
		c-2.5-2.34-3.45-5.74-3.98-8.45c-0.9-4.55-1.15-9.15-1.4-13.62c-0.08-1.39-0.16-2.79-0.25-4.19l7.14-0.49
		c0.08,1.44,0.16,2.87,0.25,4.31c0.21,4.23,0.45,8.58,1.23,12.6c0.21,0.98,0.7,3.57,1.81,4.6c0.12,0.12,0.21,0.16,0.21,0.16
		c0.16,0,0.86-0.41,1.44-1.35c1.64-2.71,2.38-6.36,2.38-11.53c0-0.25,0-0.49,0-0.74l7.18-0.12c0.04,2.91,0.29,5.46,0.74,7.8
		c0.25,1.27,0.86,4.6,2.26,5.74c0.08,0.04,0.12,0.04,0.12,0.04c0.04,0,0.41-0.21,0.7-0.74c0.98-1.76,1.27-4.68,1.52-7.26
		c0.04-0.53,0.08-1.03,0.12-1.52c0.45-4.1,0.66-8.25,0.78-11.41v-0.37L886.7,585.57z"/>
	<path class="st0" d="M904.51,601.41c1.68,2.34,2.13,5.21,1.23,7.88c-0.94,2.71-3.24,4.84-6.11,5.66c-0.86,0.25-1.72,0.37-2.63,0.37
		c-3.41,0-6.98-1.72-9.64-4.8l5.42-4.68c1.48,1.72,3.49,2.67,4.88,2.26c0.66-0.16,1.15-0.57,1.35-1.11c0.16-0.45,0.08-0.9-0.21-1.31
		c-0.66-0.9-2.22-1.72-3.69-2.54c-3.16-1.72-8.45-4.55-7.39-11.2c0.62-3.82,3.77-6.69,7.67-6.98c3.77-0.29,7.84,1.56,10.09,4.6
		l-5.74,4.27c-0.82-1.07-2.46-1.81-3.82-1.68c-0.57,0.04-1.07,0.45-1.15,0.98c-0.21,1.27,0.12,1.81,3.69,3.73
		c2.09,1.15,4.47,2.42,6.07,4.64L904.51,601.41z"/>
	<path class="st0" d="M938.73,608.76c-2.75,2.17-5.83,3.77-9.15,4.76c-2.67,0.78-5.21,1.07-7.47,1.07c-2.46,0-4.6-0.33-6.24-0.7
		l1.56-7.06c1.72-4.51,4.06-8.7,6.93-12.47c0.53-0.7,1.11-1.39,1.68-2.09c-1.56,0.08-3.12,0.25-4.64,0.49
		c-1.23,0.21-2.5,0.49-3.73,0.82l-1.89-6.89c1.44-0.41,2.91-0.74,4.39-0.98c5.38-0.94,10.91-0.98,16.45-0.08l-1.15,7.06
		c-2.05,1.81-3.77,3.77-5.42,5.95c-1.97,2.59-3.65,5.46-5.01,8.49c0.82-0.12,1.64-0.29,2.5-0.53c2.42-0.7,4.68-1.85,6.69-3.45
		L938.73,608.76z"/>
	<path class="st0" d="M959.04,588.9c2.75,3.32,4.19,8.12,3.65,12.27c-0.45,3.49-2.34,8.21-6.24,10.91
		c-1.85,1.27-3.86,1.93-5.95,1.93c-0.82,0-1.64-0.08-2.46-0.29c-3.94-0.9-7.26-3.94-8.86-8.08c-1.44-3.69-1.52-8.17-0.25-11.98
		c1.52-4.55,5.91-9.31,11.98-9.03c3.08,0.16,5.99,1.68,8.17,4.31L959.04,588.9z M955.55,600.22c0.29-2.13-0.57-4.96-2.05-6.73
		c-0.9-1.11-1.93-1.68-3.04-1.72c-0.04,0-0.08,0-0.12,0c-2.13,0-3.98,2.09-4.68,4.14c-0.74,2.22-0.7,5.01,0.12,7.1
		c0.78,1.97,2.17,3.32,3.86,3.73c0.98,0.25,1.85,0.08,2.71-0.53c1.6-1.11,2.91-3.57,3.24-5.99H955.55z"/>
	<path class="st0" d="M988.46,585.45v28.19l-7.18,0.04c-5.09-3.36-7.92-8.33-9.85-12.27v12.23h-7.18v-28.07l7.18,0.04
		c2.09,3,3.53,6.16,4.92,9.23c0.53,1.19,1.03,2.3,1.56,3.41c0.86,1.76,1.97,3.77,3.41,5.62v-18.46L988.46,585.45z"/>
	<path class="st0" d="M1010.49,592.63h-12.43c-0.04,1.27-0.04,2.54-0.04,3.82l6.4-0.08l0.08,7.18l-6.4,0.08
		c0.04,1.03,0.08,2.05,0.12,3.08c1.03,0,2.05-0.04,3.08-0.12c2.5-0.16,5.05-0.49,7.51-0.94l1.31,7.06
		c-2.75,0.49-5.54,0.86-8.33,1.07c-1.6,0.12-3.2,0.16-4.8,0.16c-1.85,0-3.69-0.08-5.54-0.21l0.04-0.37h-0.04
		c-0.49-6.85-0.66-13.79-0.53-20.72h-0.12v-7.18h19.69V592.63z"/>
</g>
<g>
	<g>
		<path class="st2" d="M932.79,272.13c0.67,3.8,1.47,7.37,1.87,11c0.22,2.04,0.06,4.22-0.44,6.2c-0.89,3.52-3.92,5.78-7.56,5.71
			c-2.01-0.04-4.15-0.29-5.99-1.04c-9.29-3.77-18.08-1.66-26.83,1.88c-3.38,1.37-6.81,2.72-10.33,3.6c-2.12,0.53-4.5,0.41-6.71,0.15
			c-5.23-0.62-8.67-3.67-10.51-8.54c-2.02-5.38-1.84-10.89-0.81-16.43c0.08-0.45,0.15-0.9,0.25-1.51
			c-4.53,0.02-8.34-1.61-11.55-4.49c-7.11-6.37-10.57-14.28-9.23-23.86c1.35-9.66,10.76-14.6,19.62-10.5
			c0.62,0.28,1.22,0.59,1.95,0.95c-0.44-2.06-0.99-4-1.27-5.99c-0.72-5.12-0.49-10.16,1.88-14.89c3.72-7.4,11.77-10.31,19.31-6.88
			c6.28,2.86,10.04,8.04,12.63,14.22c0.26,0.61,0.49,1.22,0.87,2.15c0.28-0.81,0.47-1.33,0.64-1.85c1.43-4.4,3.58-8.38,6.92-11.64
			c8.4-8.18,20.55-5.75,25.11,5.05c2.27,5.38,2.49,10.98,1.5,16.68c-0.09,0.5-0.17,0.99-0.2,1.15c2.67-0.44,5.34-1.34,7.97-1.24
			c6.94,0.28,12.09,5.35,12.72,12.64c0.92,10.61-3.25,19.01-12.03,25.02C939.68,271.66,936.38,272.45,932.79,272.13z M873.72,277.08
			c0.43,2.14,0.65,4.34,1.34,6.39c0.96,2.87,3.15,4.28,6.16,4.11c1.43-0.08,2.87-0.51,4.25-0.95c1.39-0.44,2.71-1.13,4.08-1.64
			c9.41-3.5,18.91-4.9,28.7-1.47c2.95,1.04,5.42-0.79,5.7-4.21c0.16-2,0.17-4.13-0.32-6.06c-1.39-5.57-3.4-10.97-8.03-14.71
			c-7.94-6.41-17.12-7.68-26.5-4.43C880.73,257.02,873.6,264.89,873.72,277.08z M879.43,216.86c-2.24-0.04-4.2,0.76-6.05,1.92
			c-1.09,0.68-1.71,1.58-1.88,2.9c-0.77,5.69,0.49,10.95,3.37,15.83c2.04,3.46,4.69,6.34,8.65,7.63c5.04,1.65,10.46-1.92,10.52-7.21
			c0.07-6.12-1.5-11.85-5.61-16.6C886.08,218.61,883.15,216.91,879.43,216.86z M925.03,226.1c-0.34-1.34-0.76-4.06-1.75-6.54
			c-1.31-3.28-4.04-4.83-7.27-4.18c-3.75,0.76-7.04,2.36-8.52,6.35c-2.39,6.44-3.19,12.94,0.32,19.15
			c3.31,5.83,7.91,6.25,12.31,1.08C923.66,237.81,924.75,232.77,925.03,226.1z M946.48,246.07c-0.29-1.23-0.66-3.45-1.4-5.54
			c-0.29-0.81-1.33-1.63-2.19-1.9c-2.47-0.77-4.77,0.07-6.84,1.43c-4.51,2.96-7.14,7.25-8.44,12.41c-0.76,3.01-0.84,6.02,0.38,8.94
			c1.52,3.62,3.93,4.69,7.53,3.23c1.29-0.52,2.56-1.25,3.61-2.15C943.87,258.47,946.14,253.24,946.48,246.07z M858.29,242.95
			c-5.72,0.48-8.01,2.04-7.14,7.41c0.01,0.05,0.01,0.1,0.01,0.16c1.17,6.76,4.18,12.32,10.61,15.36c4.64,2.2,8.89-0.03,10.17-5
			c0.7-2.72,0.36-5.07-1.13-7.45c-1.17-1.86-2.22-3.81-3.61-5.49C864.84,245.07,861.88,243.08,858.29,242.95z M894.5,230.59
			c-0.09,0-0.18,0-0.27,0c0,1.84,0,3.68,0,5.51c0.09,0,0.18,0,0.27,0C894.5,234.27,894.5,232.43,894.5,230.59z"/>
		<path class="st2" d="M849.2,219.43c0.12-1.34,1.4-2.43,2.69-2.28c1.37,0.16,2.21,1.32,2.04,2.81c-0.15,1.32-1.09,2.07-2.5,1.97
			C850.1,221.85,849.09,220.71,849.2,219.43z"/>
		<path class="st2" d="M856.93,229.6c0.03,1.35-0.96,2.37-2.34,2.41c-1.47,0.04-2.53-0.96-2.53-2.38c0.01-1.26,1.14-2.39,2.42-2.41
			C855.73,227.19,856.91,228.34,856.93,229.6z"/>
		<path class="st2" d="M860.73,283.31c-1.4-0.03-2.35-1-2.32-2.38c0.03-1.32,1.11-2.39,2.41-2.38c1.33,0.01,2.51,1.23,2.44,2.54
			C863.17,282.43,862.14,283.34,860.73,283.31z"/>
		<path class="st2" d="M942.02,223.11c1.32,0.01,2.49,1.24,2.44,2.54c-0.06,1.3-1.14,2.28-2.51,2.25c-1.44-0.03-2.28-0.92-2.26-2.4
			C939.71,224.11,940.7,223.1,942.02,223.11z"/>
		<path class="st2" d="M847.09,276.04c-1.34-0.04-2.38-1.1-2.36-2.42c0.02-1.38,1.17-2.41,2.57-2.38c1.45,0.03,2.23,1.37,2.21,2.68
			C849.49,275.17,848.41,276.08,847.09,276.04z"/>
		<path class="st2" d="M940.9,285.53c-1.39-0.02-2.4-1.04-2.35-2.38c0.05-1.32,1.17-2.36,2.48-2.3c1.45,0.07,2.31,0.98,2.28,2.43
			C943.29,284.74,942.41,285.55,940.9,285.53z"/>
		<path class="st2" d="M901.14,206.79c-1.13,0.02-2.31-1.22-2.35-2.48c-0.04-1.33,0.85-2.26,2.2-2.32c1.44-0.06,2.58,0.97,2.58,2.35
			C903.58,205.49,902.31,206.76,901.14,206.79z"/>
		<path class="st2" d="M950.47,270.94c1.25,0.04,2.34,1.16,2.27,2.33c-0.06,0.98-1.64,2.5-2.56,2.47c-1.29-0.04-2.33-1.22-2.24-2.52
			C948.03,271.93,949.18,270.9,950.47,270.94z"/>
		<path class="st2" d="M882.66,199.8c-0.04-1.76,0.53-2.5,1.9-2.47c1.26,0.02,2.38,1.18,2.38,2.45c0,1.34-1.02,2.32-2.42,2.33
			C883.06,202.13,882.7,201.67,882.66,199.8z"/>
		<path class="st2" d="M854.41,286.78c-0.55,0.48-0.94,1.06-1.25,1.02c-0.43-0.06-0.8-0.58-1.2-0.9c0.37-0.38,0.68-0.93,1.13-1.06
			C853.36,285.75,853.82,286.33,854.41,286.78z"/>
		<path class="st2" d="M898.4,212.11c-0.64,0.47-1.01,0.95-1.34,0.93c-0.37-0.02-0.71-0.52-1.06-0.81c0.33-0.36,0.61-0.91,1.02-1.03
			C897.29,211.12,897.74,211.65,898.4,212.11z"/>
		<path class="st2" d="M943.7,294.2c-0.47-0.63-1-1.01-0.98-1.38c0.01-0.37,0.55-0.72,0.86-1.08c0.32,0.4,0.76,0.77,0.9,1.23
			C944.55,293.21,944.08,293.61,943.7,294.2z"/>
		<path class="st2" d="M950.88,229.29c-0.65,0.43-1.05,0.91-1.4,0.88c-0.35-0.03-0.88-0.58-0.9-0.92c-0.01-0.35,0.57-1.06,0.78-1.01
			C949.82,228.33,950.2,228.79,950.88,229.29z"/>
		<path class="st2" d="M938.45,216.39c-0.44-0.67-0.91-1.07-0.87-1.4c0.05-0.36,0.57-0.66,0.88-0.99c0.34,0.34,0.87,0.65,0.95,1.04
			C939.47,215.33,938.94,215.74,938.45,216.39z"/>
		<path class="st2" d="M894.66,197.31c-0.81,0.43-1.28,0.89-1.62,0.81c-0.34-0.08-0.56-0.69-0.84-1.07c0.29-0.2,0.61-0.6,0.88-0.57
			C893.5,196.54,893.88,196.88,894.66,197.31z"/>
		<path class="st2" d="M861.05,226.28c-0.47,0.4-0.93,0.92-1.03,0.85c-0.42-0.26-0.74-0.7-1.09-1.07c0.38-0.34,0.77-0.68,1.15-1.03
			C860.36,225.39,860.63,225.74,861.05,226.28z"/>
		<path class="st2" d="M860.7,215.11c0.36,0.65,0.76,1.04,0.69,1.31c-0.1,0.4-0.52,0.72-0.81,1.08c-0.31-0.34-0.84-0.67-0.88-1.04
			C859.68,216.13,860.2,215.75,860.7,215.11z"/>
		<path class="st2" d="M846.69,226.64c0.39,0.57,0.87,1,0.79,1.2c-0.17,0.41-0.63,0.92-1,0.95c-0.35,0.02-0.73-0.54-1.09-0.84
			C845.75,227.58,846.12,227.21,846.69,226.64z"/>
		<path class="st2" d="M856.48,277.26c-0.52,0.21-1.04,0.52-1.57,0.56c-0.19,0.01-0.42-0.67-0.63-1.03c0.66-0.1,1.31-0.2,1.97-0.3
			C856.32,276.74,856.4,277,856.48,277.26z"/>
		<path class="st2" d="M952.66,284.88c-0.38-0.52-0.82-0.98-0.76-1.07c0.26-0.36,0.65-0.67,1.06-0.86c0.09-0.04,0.68,0.55,0.63,0.76
			C953.51,284.06,953.11,284.34,952.66,284.88z"/>
		<path class="st2" d="M842.14,267.39c-0.22-0.46-0.52-0.86-0.56-1.28c-0.03-0.25,0.35-0.76,0.55-0.77c0.48-0.01,0.96,0.21,1.6,0.38
			C843.11,266.37,842.72,266.78,842.14,267.39z"/>
		<path class="st2" d="M943.72,275.92c0.46-0.19,0.96-0.58,1.38-0.5c0.34,0.06,0.58,0.67,0.86,1.04c-0.11,0.13-0.21,0.25-0.32,0.38
			c-0.6-0.13-1.2-0.26-1.8-0.39C943.8,276.27,943.76,276.09,943.72,275.92z"/>
		<ellipse class="st2" cx="894.37" cy="233.35" rx="0.19" ry="3.9"/>
	</g>
	<g>
		<path class="st2" d="M1024.23,225.42c7.04,6.17,10.28,16.56,8.33,26.41c-1.73,8.44-7.25,16.13-15.48,21.65
			c-7.25,4.87-14.83,6.49-21.11,6.82c0.11,4.22,0.22,8.44,0.43,12.66l-18.83,0.87c-0.97-19.81-0.65-39.83,0.76-59.64l-4.55-13.75
			c11.04-3.68,22.84-4.44,34.21-2.16c4.33,0.87,10.72,2.6,16.02,7.25L1024.23,225.42z M1014.16,247.94
			c0.65-3.14-0.33-6.71-2.27-8.44c-1.41-1.3-3.79-2.27-7.36-2.92c-2.38-0.43-4.76-0.65-7.14-0.76c-0.65,8.44-1.08,16.89-1.19,25.33
			c3.25-0.22,7.04-1.08,10.5-3.46c4-2.71,6.71-6.17,7.36-9.63L1014.16,247.94z"/>
		<path class="st2" d="M1078.03,237.11c6.82,17.32,11.37,35.72,13.53,54.66l-18.73,2.17c-0.32-2.71-0.76-5.3-1.19-7.9
			c-4.76,0.43-9.63,0.65-14.51,0.65c-2.92,0-5.85-0.11-8.77-0.22c-0.32,2.49-0.65,4.98-0.87,7.47l-18.84-1.73
			c1.19-12.34,3.79-24.46,7.79-36.15c3.9-11.58,9.09-22.62,15.48-33.02l2.81-4.44h14.72l2.6,5.41c2.06,4.33,4.01,8.77,5.74,13.21
			L1078.03,237.11z M1052.59,267.64c5.09,0.11,10.18,0,15.26-0.32c-1.84-7.36-4.11-14.61-6.82-21.65c-2.6,5.3-4.76,10.72-6.6,16.24
			c-0.65,1.84-1.19,3.79-1.73,5.74H1052.59z"/>
		<path class="st2" d="M1185.3,219.03v0.97c-0.32,8.66-0.87,20.03-2.06,31.39c-0.11,1.19-0.22,2.49-0.32,3.79
			c-0.87,8.66-1.84,18.4-6.28,26.52c-3.36,6.06-8.88,10.28-15.15,11.47c-1.19,0.22-2.38,0.32-3.57,0.32
			c-4.44,0-8.66-1.52-12.23-4.55c-2.27-1.84-4.11-4-5.63-6.39c-4.11,6.17-10.18,10.39-16.56,11.26c-0.87,0.11-1.73,0.22-2.6,0.22
			c-4.87,0-9.53-1.84-13.31-5.41c-6.6-6.17-9.09-15.15-10.5-22.3c-2.38-12.02-3.03-24.14-3.68-35.94
			c-0.22-3.68-0.43-7.36-0.65-11.04l18.83-1.3c0.22,3.79,0.43,7.58,0.65,11.37c0.54,11.15,1.19,22.62,3.25,33.23
			c0.54,2.6,1.84,9.42,4.76,12.12c0.32,0.32,0.54,0.43,0.54,0.43c0.43,0,2.27-1.08,3.79-3.57c4.33-7.14,6.28-16.78,6.28-30.42
			c0-0.65,0-1.3,0-1.95l18.94-0.33c0.11,7.69,0.76,14.4,1.95,20.57c0.65,3.36,2.27,12.12,5.95,15.15c0.22,0.11,0.32,0.11,0.32,0.11
			c0.11,0,1.08-0.54,1.84-1.95c2.6-4.66,3.36-12.34,4.01-19.16c0.11-1.41,0.22-2.71,0.32-4.01c1.19-10.82,1.73-21.76,2.06-30.09
			v-0.97L1185.3,219.03z"/>
		<path class="st2" d="M1232.28,260.82c4.44,6.17,5.63,13.75,3.25,20.78c-2.49,7.14-8.55,12.77-16.13,14.94
			c-2.27,0.65-4.55,0.97-6.93,0.97c-8.98,0-18.4-4.55-25.44-12.67l14.29-12.34c3.9,4.55,9.2,7.04,12.88,5.95
			c1.73-0.43,3.03-1.51,3.57-2.92c0.43-1.19,0.22-2.38-0.54-3.46c-1.73-2.38-5.85-4.55-9.74-6.71c-8.33-4.55-22.3-12.01-19.48-29.55
			c1.62-10.07,9.96-17.64,20.24-18.4c9.96-0.76,20.68,4.11,26.63,12.12l-15.15,11.26c-2.17-2.81-6.49-4.76-10.07-4.44
			c-1.52,0.11-2.81,1.19-3.03,2.6c-0.54,3.36,0.32,4.76,9.74,9.85c5.52,3.03,11.8,6.39,16.02,12.23L1232.28,260.82z"/>
		<path class="st2" d="M1322.56,280.19c-7.25,5.74-15.37,9.96-24.14,12.56c-7.04,2.06-13.75,2.81-19.7,2.81
			c-6.5,0-12.12-0.87-16.45-1.84l4.11-18.62c4.55-11.91,10.72-22.95,18.29-32.91c1.41-1.84,2.92-3.68,4.44-5.52
			c-4.11,0.22-8.23,0.65-12.23,1.3c-3.25,0.54-6.6,1.3-9.85,2.16l-4.98-18.19c3.79-1.08,7.69-1.95,11.58-2.6
			c14.18-2.49,28.79-2.6,43.41-0.22l-3.03,18.62c-5.41,4.76-9.96,9.96-14.29,15.7c-5.2,6.82-9.63,14.4-13.21,22.41
			c2.16-0.32,4.33-0.76,6.6-1.41c6.39-1.84,12.34-4.87,17.64-9.09L1322.56,280.19z"/>
		<path class="st2" d="M1376.14,227.8c7.25,8.77,11.04,21.43,9.63,32.37c-1.19,9.2-6.17,21.65-16.45,28.79
			c-4.87,3.36-10.18,5.09-15.7,5.09c-2.17,0-4.33-0.22-6.5-0.76c-10.39-2.38-19.16-10.39-23.38-21.32c-3.79-9.74-4-21.54-0.65-31.61
			c4-12.02,15.59-24.57,31.61-23.81c8.12,0.43,15.8,4.44,21.54,11.37L1376.14,227.8z M1366.94,257.68
			c0.76-5.63-1.52-13.1-5.41-17.75c-2.38-2.92-5.09-4.44-8.01-4.55c-0.11,0-0.22,0-0.32,0c-5.63,0-10.5,5.52-12.34,10.93
			c-1.95,5.85-1.84,13.21,0.32,18.73c2.06,5.2,5.74,8.77,10.18,9.85c2.6,0.65,4.87,0.22,7.14-1.41c4.22-2.92,7.69-9.42,8.55-15.8
			H1366.94z"/>
		<path class="st2" d="M1453.76,218.71v74.36l-18.94,0.11c-13.42-8.88-20.89-21.97-25.98-32.37v32.26h-18.94v-74.04l18.94,0.11
			c5.52,7.9,9.31,16.24,12.99,24.36c1.41,3.14,2.71,6.06,4.11,8.98c2.27,4.65,5.2,9.96,8.98,14.83V218.6L1453.76,218.71z"/>
		<path class="st2" d="M1511.89,237.65h-32.8c-0.11,3.36-0.11,6.71-0.11,10.07l16.89-0.22l0.22,18.94l-16.89,0.22
			c0.11,2.71,0.22,5.41,0.32,8.12c2.71,0,5.41-0.11,8.12-0.32c6.6-0.43,13.31-1.3,19.81-2.49l3.46,18.62
			c-7.25,1.3-14.61,2.27-21.97,2.81c-4.22,0.32-8.44,0.43-12.66,0.43c-4.87,0-9.74-0.22-14.61-0.54l0.11-0.97h-0.11
			c-1.3-18.08-1.73-36.37-1.41-54.66h-0.32v-18.94h51.96V237.65z"/>
	</g>
</g>
<g>
	<g>
		<path class="st0" d="M128.53,128.13c0.67,3.8,1.47,7.37,1.87,11c0.22,2.04,0.06,4.22-0.44,6.2c-0.89,3.52-3.92,5.78-7.56,5.71
			c-2.01-0.04-4.15-0.29-5.99-1.04c-9.29-3.77-18.08-1.66-26.83,1.88c-3.38,1.37-6.81,2.72-10.33,3.6c-2.12,0.53-4.5,0.41-6.71,0.15
			c-5.23-0.62-8.67-3.67-10.51-8.54c-2.02-5.38-1.84-10.89-0.81-16.43c0.08-0.45,0.15-0.9,0.25-1.51
			c-4.53,0.02-8.34-1.61-11.55-4.49c-7.11-6.37-10.57-14.28-9.23-23.86c1.35-9.66,10.76-14.6,19.62-10.5
			c0.62,0.28,1.22,0.59,1.95,0.95c-0.44-2.06-0.99-4-1.27-5.99c-0.72-5.12-0.49-10.16,1.88-14.89c3.72-7.4,11.77-10.31,19.31-6.88
			c6.28,2.86,10.04,8.04,12.63,14.22c0.26,0.61,0.49,1.22,0.87,2.15c0.28-0.81,0.47-1.33,0.64-1.85c1.43-4.4,3.58-8.38,6.92-11.64
			c8.4-8.18,20.55-5.75,25.11,5.05c2.27,5.38,2.49,10.98,1.5,16.68c-0.09,0.5-0.17,0.99-0.2,1.15c2.67-0.44,5.34-1.34,7.97-1.24
			c6.94,0.28,12.09,5.35,12.72,12.64c0.92,10.61-3.25,19.01-12.03,25.02C135.43,127.66,132.12,128.45,128.53,128.13z M69.46,133.08
			c0.43,2.14,0.65,4.34,1.34,6.39c0.96,2.87,3.15,4.28,6.16,4.11c1.43-0.08,2.87-0.51,4.25-0.95c1.39-0.44,2.71-1.13,4.08-1.64
			c9.41-3.5,18.91-4.9,28.7-1.47c2.95,1.04,5.42-0.79,5.7-4.21c0.16-2,0.17-4.13-0.32-6.06c-1.39-5.57-3.4-10.97-8.03-14.71
			c-7.94-6.41-17.12-7.68-26.5-4.43C76.48,113.02,69.35,120.89,69.46,133.08z M75.18,72.86c-2.24-0.04-4.2,0.76-6.05,1.92
			c-1.09,0.68-1.71,1.58-1.88,2.9c-0.77,5.69,0.49,10.95,3.37,15.83c2.04,3.46,4.69,6.34,8.65,7.63c5.04,1.65,10.46-1.92,10.52-7.21
			c0.07-6.12-1.5-11.85-5.61-16.6C81.83,74.61,78.9,72.91,75.18,72.86z M120.78,82.1c-0.34-1.34-0.76-4.06-1.75-6.54
			c-1.31-3.28-4.04-4.83-7.27-4.18c-3.75,0.76-7.04,2.36-8.52,6.35c-2.39,6.44-3.19,12.94,0.32,19.15
			c3.31,5.83,7.91,6.25,12.31,1.08C119.4,93.81,120.49,88.77,120.78,82.1z M142.22,102.07c-0.29-1.23-0.66-3.45-1.4-5.54
			c-0.29-0.81-1.33-1.63-2.19-1.9c-2.47-0.77-4.77,0.07-6.84,1.43c-4.51,2.96-7.14,7.25-8.44,12.41c-0.76,3.01-0.84,6.02,0.38,8.94
			c1.52,3.62,3.93,4.69,7.53,3.23c1.29-0.52,2.56-1.25,3.61-2.15C139.61,114.47,141.89,109.24,142.22,102.07z M54.03,98.95
			c-5.72,0.48-8.01,2.04-7.14,7.41c0.01,0.05,0.01,0.1,0.01,0.16c1.17,6.76,4.18,12.32,10.61,15.36c4.64,2.2,8.89-0.03,10.17-5
			c0.7-2.72,0.36-5.07-1.13-7.45c-1.17-1.86-2.22-3.81-3.61-5.49C60.58,101.07,57.63,99.08,54.03,98.95z M90.25,86.59
			c-0.09,0-0.18,0-0.27,0c0,1.84,0,3.68,0,5.51c0.09,0,0.18,0,0.27,0C90.25,90.27,90.25,88.43,90.25,86.59z"/>
		<path class="st0" d="M44.95,75.43c0.12-1.34,1.4-2.43,2.69-2.28c1.37,0.16,2.21,1.32,2.04,2.81c-0.15,1.32-1.09,2.07-2.5,1.97
			C45.85,77.85,44.84,76.71,44.95,75.43z"/>
		<path class="st0" d="M52.68,85.6c0.03,1.35-0.96,2.37-2.34,2.41c-1.47,0.04-2.53-0.96-2.53-2.38c0.01-1.26,1.14-2.39,2.42-2.41
			C51.48,83.19,52.65,84.34,52.68,85.6z"/>
		<path class="st0" d="M56.47,139.31c-1.4-0.03-2.35-1-2.32-2.38c0.03-1.32,1.11-2.39,2.41-2.38c1.33,0.01,2.51,1.23,2.44,2.54
			C58.92,138.43,57.88,139.34,56.47,139.31z"/>
		<path class="st0" d="M137.76,79.11c1.32,0.01,2.49,1.24,2.44,2.54c-0.06,1.3-1.14,2.28-2.51,2.25c-1.44-0.03-2.28-0.92-2.26-2.4
			C135.46,80.11,136.44,79.1,137.76,79.11z"/>
		<path class="st0" d="M42.83,132.04c-1.34-0.04-2.38-1.1-2.36-2.42c0.02-1.38,1.17-2.41,2.57-2.38c1.45,0.03,2.23,1.37,2.21,2.68
			C45.23,131.17,44.15,132.08,42.83,132.04z"/>
		<path class="st0" d="M136.64,141.53c-1.39-0.02-2.4-1.04-2.35-2.38c0.05-1.32,1.17-2.36,2.48-2.3c1.45,0.07,2.31,0.98,2.28,2.43
			C139.03,140.74,138.16,141.55,136.64,141.53z"/>
		<path class="st0" d="M96.89,62.79c-1.13,0.02-2.31-1.22-2.35-2.48c-0.04-1.33,0.85-2.26,2.2-2.32c1.44-0.06,2.58,0.97,2.58,2.35
			C99.33,61.49,98.06,62.76,96.89,62.79z"/>
		<path class="st0" d="M146.22,126.94c1.25,0.04,2.34,1.16,2.27,2.33c-0.06,0.98-1.64,2.5-2.56,2.47c-1.29-0.04-2.33-1.22-2.24-2.52
			C143.78,127.93,144.92,126.9,146.22,126.94z"/>
		<path class="st0" d="M78.4,55.8c-0.04-1.76,0.53-2.5,1.9-2.47c1.26,0.02,2.38,1.18,2.38,2.45c0,1.34-1.02,2.32-2.42,2.33
			C78.81,58.13,78.44,57.67,78.4,55.8z"/>
		<path class="st0" d="M50.16,142.78c-0.55,0.48-0.94,1.06-1.25,1.02c-0.43-0.06-0.8-0.58-1.2-0.9c0.37-0.38,0.68-0.93,1.13-1.06
			C49.11,141.75,49.57,142.33,50.16,142.78z"/>
		<path class="st0" d="M94.14,68.11c-0.64,0.47-1.01,0.95-1.34,0.93c-0.37-0.02-0.71-0.52-1.06-0.81c0.33-0.36,0.61-0.91,1.02-1.03
			C93.03,67.12,93.48,67.65,94.14,68.11z"/>
		<path class="st0" d="M139.44,150.2c-0.47-0.63-1-1.01-0.98-1.38c0.01-0.37,0.55-0.72,0.86-1.08c0.32,0.4,0.76,0.77,0.9,1.23
			C140.29,149.21,139.83,149.61,139.44,150.2z"/>
		<path class="st0" d="M146.63,85.29c-0.65,0.43-1.05,0.91-1.4,0.88c-0.35-0.03-0.88-0.58-0.9-0.92c-0.01-0.35,0.57-1.06,0.78-1.01
			C145.56,84.33,145.95,84.79,146.63,85.29z"/>
		<path class="st0" d="M134.19,72.39c-0.44-0.67-0.91-1.07-0.87-1.4c0.05-0.36,0.57-0.66,0.88-0.99c0.34,0.34,0.87,0.65,0.95,1.04
			C135.22,71.33,134.68,71.74,134.19,72.39z"/>
		<path class="st0" d="M90.4,53.31c-0.81,0.43-1.28,0.89-1.62,0.81c-0.34-0.08-0.56-0.69-0.84-1.07c0.29-0.2,0.61-0.6,0.88-0.57
			C89.24,52.54,89.62,52.88,90.4,53.31z"/>
		<path class="st0" d="M56.79,82.28c-0.47,0.4-0.93,0.92-1.03,0.85c-0.42-0.26-0.74-0.7-1.09-1.07c0.38-0.34,0.77-0.68,1.15-1.03
			C56.1,81.39,56.38,81.74,56.79,82.28z"/>
		<path class="st0" d="M56.45,71.11c0.36,0.65,0.76,1.04,0.69,1.31c-0.1,0.4-0.52,0.72-0.81,1.08c-0.31-0.34-0.84-0.67-0.88-1.04
			C55.42,72.13,55.94,71.75,56.45,71.11z"/>
		<path class="st0" d="M42.44,82.64c0.39,0.57,0.87,1,0.79,1.2c-0.17,0.41-0.63,0.92-1,0.95c-0.35,0.02-0.73-0.54-1.09-0.84
			C41.5,83.58,41.87,83.21,42.44,82.64z"/>
		<path class="st0" d="M52.22,133.26c-0.52,0.21-1.04,0.52-1.57,0.56c-0.19,0.01-0.42-0.67-0.63-1.03c0.66-0.1,1.31-0.2,1.97-0.3
			C52.07,132.74,52.14,133,52.22,133.26z"/>
		<path class="st0" d="M148.4,140.88c-0.38-0.52-0.82-0.98-0.76-1.07c0.26-0.36,0.65-0.67,1.06-0.86c0.09-0.04,0.68,0.55,0.63,0.76
			C149.26,140.06,148.85,140.34,148.4,140.88z"/>
		<path class="st0" d="M37.89,123.39c-0.22-0.46-0.52-0.86-0.56-1.28c-0.03-0.25,0.35-0.76,0.55-0.77c0.48-0.01,0.96,0.21,1.6,0.38
			C38.86,122.37,38.47,122.78,37.89,123.39z"/>
		<path class="st0" d="M139.47,131.92c0.46-0.19,0.96-0.58,1.38-0.5c0.34,0.06,0.58,0.67,0.86,1.04c-0.11,0.13-0.21,0.25-0.32,0.38
			c-0.6-0.13-1.2-0.26-1.8-0.39C139.55,132.27,139.51,132.09,139.47,131.92z"/>
		<ellipse class="st0" cx="90.11" cy="89.35" rx="0.19" ry="3.9"/>
	</g>
	<g>
		<path class="st0" d="M219.98,81.42c7.04,6.17,10.28,16.56,8.33,26.41c-1.73,8.44-7.25,16.13-15.48,21.65
			c-7.25,4.87-14.83,6.49-21.11,6.82c0.11,4.22,0.22,8.44,0.43,12.66l-18.83,0.87c-0.97-19.81-0.65-39.83,0.76-59.64l-4.55-13.75
			c11.04-3.68,22.84-4.44,34.21-2.16c4.33,0.87,10.72,2.6,16.02,7.25L219.98,81.42z M209.91,103.94c0.65-3.14-0.32-6.71-2.27-8.44
			c-1.41-1.3-3.79-2.27-7.36-2.92c-2.38-0.43-4.76-0.65-7.14-0.76c-0.65,8.44-1.08,16.89-1.19,25.33c3.25-0.22,7.04-1.08,10.5-3.46
			c4-2.71,6.71-6.17,7.36-9.63L209.91,103.94z"/>
		<path class="st0" d="M273.78,93.11c6.82,17.32,11.37,35.72,13.53,54.66l-18.73,2.17c-0.32-2.71-0.76-5.3-1.19-7.9
			c-4.76,0.43-9.63,0.65-14.51,0.65c-2.92,0-5.85-0.11-8.77-0.22c-0.32,2.49-0.65,4.98-0.87,7.47l-18.84-1.73
			c1.19-12.34,3.79-24.46,7.79-36.15c3.9-11.58,9.09-22.62,15.48-33.02l2.81-4.44h14.72l2.6,5.41c2.06,4.33,4.01,8.77,5.74,13.21
			L273.78,93.11z M248.34,123.64c5.09,0.11,10.18,0,15.26-0.32c-1.84-7.36-4.11-14.61-6.82-21.65c-2.6,5.3-4.76,10.72-6.6,16.24
			c-0.65,1.84-1.19,3.79-1.73,5.74H248.34z"/>
		<path class="st0" d="M381.05,75.03v0.97c-0.32,8.66-0.87,20.03-2.06,31.39c-0.11,1.19-0.22,2.49-0.32,3.79
			c-0.87,8.66-1.84,18.4-6.28,26.52c-3.36,6.06-8.88,10.28-15.15,11.47c-1.19,0.22-2.38,0.32-3.57,0.32
			c-4.44,0-8.66-1.52-12.23-4.55c-2.27-1.84-4.11-4-5.63-6.39c-4.11,6.17-10.18,10.39-16.56,11.26c-0.87,0.11-1.73,0.22-2.6,0.22
			c-4.87,0-9.53-1.84-13.31-5.41c-6.6-6.17-9.09-15.15-10.5-22.3c-2.38-12.02-3.03-24.14-3.68-35.94
			c-0.22-3.68-0.43-7.36-0.65-11.04l18.83-1.3c0.22,3.79,0.43,7.58,0.65,11.37c0.54,11.15,1.19,22.62,3.25,33.23
			c0.54,2.6,1.84,9.42,4.76,12.12c0.32,0.32,0.54,0.43,0.54,0.43c0.43,0,2.27-1.08,3.79-3.57c4.33-7.14,6.28-16.78,6.28-30.42
			c0-0.65,0-1.3,0-1.95l18.94-0.33c0.11,7.69,0.76,14.4,1.95,20.57c0.65,3.36,2.27,12.12,5.95,15.15c0.22,0.11,0.32,0.11,0.32,0.11
			c0.11,0,1.08-0.54,1.84-1.95c2.6-4.66,3.36-12.34,4.01-19.16c0.11-1.41,0.22-2.71,0.32-4.01c1.19-10.82,1.73-21.76,2.06-30.09
			V74.6L381.05,75.03z"/>
		<path class="st0" d="M428.03,116.82c4.44,6.17,5.63,13.75,3.25,20.78c-2.49,7.14-8.55,12.77-16.13,14.94
			c-2.27,0.65-4.55,0.97-6.93,0.97c-8.98,0-18.4-4.55-25.44-12.67l14.29-12.34c3.9,4.55,9.2,7.04,12.88,5.95
			c1.73-0.43,3.03-1.51,3.57-2.92c0.43-1.19,0.22-2.38-0.54-3.46c-1.73-2.38-5.85-4.55-9.74-6.71c-8.33-4.55-22.3-12.01-19.48-29.55
			c1.62-10.07,9.96-17.64,20.24-18.4c9.96-0.76,20.68,4.11,26.63,12.12l-15.15,11.26c-2.17-2.81-6.49-4.76-10.07-4.44
			c-1.52,0.11-2.81,1.19-3.03,2.6c-0.54,3.36,0.32,4.76,9.74,9.85c5.52,3.03,11.8,6.39,16.02,12.23L428.03,116.82z"/>
		<path class="st0" d="M518.3,136.19c-7.25,5.74-15.37,9.96-24.14,12.56c-7.04,2.06-13.75,2.81-19.7,2.81
			c-6.5,0-12.12-0.87-16.45-1.84l4.11-18.62c4.55-11.91,10.72-22.95,18.29-32.91c1.41-1.84,2.92-3.68,4.44-5.52
			c-4.11,0.22-8.23,0.65-12.23,1.3c-3.25,0.54-6.6,1.3-9.85,2.16l-4.98-18.19c3.79-1.08,7.69-1.95,11.58-2.6
			c14.18-2.49,28.79-2.6,43.41-0.22l-3.03,18.62c-5.41,4.76-9.96,9.96-14.29,15.7c-5.2,6.82-9.63,14.4-13.21,22.41
			c2.16-0.32,4.33-0.76,6.6-1.41c6.39-1.84,12.34-4.87,17.64-9.09L518.3,136.19z"/>
		<path class="st0" d="M571.89,83.8c7.25,8.77,11.04,21.43,9.63,32.37c-1.19,9.2-6.17,21.65-16.45,28.79
			c-4.87,3.36-10.18,5.09-15.7,5.09c-2.17,0-4.33-0.22-6.5-0.76c-10.39-2.38-19.16-10.39-23.38-21.32c-3.79-9.74-4-21.54-0.65-31.61
			c4-12.02,15.59-24.57,31.61-23.81c8.12,0.43,15.8,4.44,21.54,11.37L571.89,83.8z M562.69,113.68c0.76-5.63-1.52-13.1-5.41-17.75
			c-2.38-2.92-5.09-4.44-8.01-4.55c-0.11,0-0.22,0-0.32,0c-5.63,0-10.5,5.52-12.34,10.93c-1.95,5.85-1.84,13.21,0.32,18.73
			c2.06,5.2,5.74,8.77,10.18,9.85c2.6,0.65,4.87,0.22,7.14-1.41c4.22-2.92,7.69-9.42,8.55-15.8H562.69z"/>
		<path class="st0" d="M649.5,74.71v74.36l-18.94,0.11c-13.42-8.88-20.89-21.97-25.98-32.37v32.26h-18.94V75.03l18.94,0.11
			c5.52,7.9,9.31,16.24,12.99,24.36c1.41,3.14,2.71,6.06,4.11,8.98c2.27,4.65,5.2,9.96,8.98,14.83V74.6L649.5,74.71z"/>
		<path class="st0" d="M707.63,93.65h-32.8c-0.11,3.36-0.11,6.71-0.11,10.07l16.89-0.22l0.22,18.94l-16.89,0.22
			c0.11,2.71,0.22,5.41,0.32,8.12c2.71,0,5.41-0.11,8.12-0.32c6.6-0.43,13.31-1.3,19.81-2.49l3.46,18.62
			c-7.25,1.3-14.61,2.27-21.97,2.81c-4.22,0.32-8.44,0.43-12.66,0.43c-4.87,0-9.74-0.22-14.61-0.54l0.11-0.97h-0.11
			c-1.3-18.08-1.73-36.37-1.41-54.66h-0.32V74.71h51.96V93.65z"/>
	</g>
</g>
</svg>
