<?xml version="1.0" encoding="utf-8"?>
<!-- Generator: Adobe Illustrator 24.0.0, SVG Export Plug-In . SVG Version: 6.00 Build 0)  -->
<svg version="1.1" id="Layer_1" xmlns="http://www.w3.org/2000/svg" xmlns:xlink="http://www.w3.org/1999/xlink" x="0px" y="0px"
	 viewBox="0 0 248.34 208.34" style="enable-background:new 0 0 248.34 208.34;" xml:space="preserve">
<style type="text/css">
	.st0{fill:#FFFFFF;}
	.st1{fill:#070707;}
	.st2{fill:#121212;}
</style>
<g>
	<path class="st0" d="M158.8,104.27c0.67,3.8,1.47,7.37,1.87,11c0.22,2.04,0.06,4.22-0.44,6.2c-0.89,3.52-3.92,5.78-7.56,5.71
		c-2.01-0.04-4.15-0.29-5.99-1.04c-9.29-3.77-18.08-1.66-26.83,1.88c-3.38,1.37-6.81,2.72-10.33,3.6c-2.12,0.53-4.5,0.41-6.71,0.15
		c-5.23-0.62-8.67-3.67-10.51-8.54c-2.02-5.38-1.84-10.89-0.81-16.43c0.08-0.45,0.15-0.9,0.25-1.51c-4.53,0.02-8.34-1.61-11.55-4.49
		c-7.11-6.37-10.57-14.28-9.23-23.86c1.35-9.66,10.76-14.6,19.62-10.5c0.62,0.28,1.22,0.59,1.95,0.95c-0.44-2.06-0.99-4-1.27-5.99
		c-0.72-5.12-0.49-10.16,1.88-14.89c3.72-7.4,11.77-10.31,19.31-6.88c6.28,2.86,10.04,8.04,12.63,14.22
		c0.26,0.61,0.49,1.22,0.87,2.15c0.28-0.81,0.47-1.33,0.64-1.85c1.43-4.4,3.58-8.38,6.92-11.64c8.4-8.18,20.55-5.75,25.11,5.05
		c2.27,5.38,2.49,10.98,1.5,16.68c-0.09,0.5-0.17,0.99-0.2,1.15c2.67-0.44,5.34-1.34,7.97-1.24c6.94,0.28,12.09,5.35,12.72,12.64
		c0.92,10.61-3.25,19.01-12.03,25.02C165.7,103.8,162.39,104.59,158.8,104.27z M99.73,109.22c0.43,2.14,0.65,4.34,1.34,6.39
		c0.96,2.87,3.15,4.28,6.16,4.11c1.43-0.08,2.87-0.51,4.25-0.95c1.39-0.44,2.71-1.13,4.08-1.64c9.41-3.5,18.91-4.9,28.7-1.47
		c2.95,1.04,5.42-0.79,5.7-4.21c0.16-2,0.17-4.13-0.32-6.06c-1.39-5.57-3.4-10.97-8.03-14.71c-7.94-6.41-17.12-7.68-26.5-4.43
		C106.75,89.15,99.62,97.02,99.73,109.22z M105.45,49c-2.24-0.04-4.2,0.76-6.05,1.92c-1.09,0.68-1.71,1.58-1.88,2.9
		c-0.77,5.69,0.49,10.95,3.37,15.83c2.04,3.46,4.69,6.34,8.65,7.63c5.04,1.65,10.46-1.92,10.52-7.21c0.07-6.12-1.5-11.85-5.61-16.6
		C112.09,50.75,109.16,49.04,105.45,49z M151.05,58.23c-0.34-1.34-0.76-4.06-1.75-6.54c-1.31-3.28-4.04-4.83-7.27-4.18
		c-3.75,0.76-7.04,2.36-8.52,6.35c-2.39,6.44-3.19,12.94,0.32,19.15c3.31,5.83,7.91,6.25,12.31,1.08
		C149.67,69.95,150.76,64.91,151.05,58.23z M172.49,78.2c-0.29-1.23-0.66-3.45-1.4-5.54c-0.29-0.81-1.33-1.63-2.19-1.9
		c-2.47-0.77-4.77,0.07-6.84,1.43c-4.51,2.96-7.14,7.25-8.44,12.41c-0.76,3.01-0.84,6.02,0.38,8.94c1.52,3.62,3.93,4.69,7.53,3.23
		c1.29-0.52,2.56-1.25,3.61-2.15C169.88,90.6,172.15,85.38,172.49,78.2z M84.3,75.08c-5.72,0.48-8.01,2.04-7.14,7.41
		c0.01,0.05,0.01,0.1,0.01,0.16c1.17,6.76,4.18,12.32,10.61,15.36c4.64,2.2,8.89-0.03,10.17-5c0.7-2.72,0.36-5.07-1.13-7.45
		c-1.17-1.86-2.22-3.81-3.61-5.49C90.85,77.2,87.89,75.21,84.3,75.08z M120.52,62.72c-0.09,0-0.18,0-0.27,0c0,1.84,0,3.68,0,5.51
		c0.09,0,0.18,0,0.27,0C120.52,66.4,120.52,64.56,120.52,62.72z"/>
	<path class="st0" d="M75.22,51.57c0.12-1.34,1.4-2.43,2.69-2.28c1.37,0.16,2.21,1.32,2.04,2.81c-0.15,1.32-1.09,2.07-2.5,1.97
		C76.12,53.98,75.1,52.85,75.22,51.57z"/>
	<path class="st0" d="M82.94,61.73c0.03,1.35-0.96,2.37-2.34,2.41c-1.47,0.04-2.53-0.96-2.53-2.38c0.01-1.26,1.14-2.39,2.42-2.41
		C81.74,59.33,82.92,60.47,82.94,61.73z"/>
	<path class="st0" d="M86.74,115.45c-1.4-0.03-2.35-1-2.32-2.38c0.03-1.32,1.11-2.39,2.41-2.38c1.33,0.01,2.51,1.23,2.44,2.54
		C89.19,114.56,88.15,115.48,86.74,115.45z"/>
	<path class="st0" d="M168.03,55.25c1.32,0.01,2.49,1.24,2.44,2.54c-0.06,1.3-1.14,2.28-2.51,2.25c-1.44-0.03-2.28-0.92-2.26-2.4
		C165.72,56.25,166.71,55.23,168.03,55.25z"/>
	<path class="st0" d="M73.1,108.17c-1.34-0.04-2.38-1.1-2.36-2.42c0.02-1.38,1.17-2.41,2.57-2.38c1.45,0.03,2.23,1.37,2.21,2.68
		C75.5,107.31,74.42,108.21,73.1,108.17z"/>
	<path class="st0" d="M166.91,117.66c-1.39-0.02-2.4-1.04-2.35-2.38c0.05-1.32,1.17-2.36,2.48-2.3c1.45,0.07,2.31,0.98,2.28,2.43
		C169.3,116.87,168.42,117.69,166.91,117.66z"/>
	<path class="st0" d="M127.16,38.92c-1.13,0.02-2.31-1.22-2.35-2.48c-0.04-1.33,0.85-2.26,2.2-2.32c1.44-0.06,2.58,0.97,2.58,2.35
		C129.59,37.62,128.32,38.9,127.16,38.92z"/>
	<path class="st0" d="M176.48,103.07c1.25,0.04,2.34,1.16,2.27,2.33c-0.06,0.98-1.64,2.5-2.56,2.47c-1.29-0.04-2.33-1.22-2.24-2.52
		C174.04,104.06,175.19,103.03,176.48,103.07z"/>
	<path class="st0" d="M108.67,31.94c-0.04-1.76,0.53-2.5,1.9-2.47c1.26,0.02,2.38,1.18,2.38,2.45c0,1.34-1.02,2.32-2.42,2.33
		C109.08,34.26,108.71,33.8,108.67,31.94z"/>
	<path class="st0" d="M80.43,118.91c-0.55,0.48-0.94,1.06-1.25,1.02c-0.43-0.06-0.8-0.58-1.2-0.9c0.37-0.38,0.68-0.93,1.13-1.06
		C79.37,117.89,79.84,118.46,80.43,118.91z"/>
	<path class="st0" d="M124.41,44.24c-0.64,0.47-1.01,0.95-1.34,0.93c-0.37-0.02-0.71-0.52-1.06-0.81c0.33-0.36,0.61-0.91,1.02-1.03
		C123.3,43.26,123.75,43.78,124.41,44.24z"/>
	<path class="st0" d="M169.71,126.33c-0.47-0.63-1-1.01-0.98-1.38c0.01-0.37,0.55-0.72,0.86-1.08c0.32,0.4,0.76,0.77,0.9,1.23
		C170.56,125.34,170.1,125.75,169.71,126.33z"/>
	<path class="st0" d="M176.9,61.43c-0.65,0.43-1.05,0.91-1.4,0.88c-0.35-0.03-0.88-0.58-0.9-0.92c-0.01-0.35,0.57-1.06,0.78-1.01
		C175.83,60.47,176.22,60.92,176.9,61.43z"/>
	<path class="st0" d="M164.46,48.52c-0.44-0.67-0.91-1.07-0.87-1.4c0.05-0.36,0.57-0.66,0.88-0.99c0.34,0.34,0.87,0.65,0.95,1.04
		C165.48,47.46,164.95,47.87,164.46,48.52z"/>
	<path class="st0" d="M120.67,29.45c-0.81,0.43-1.28,0.89-1.62,0.81c-0.34-0.08-0.56-0.69-0.84-1.07c0.29-0.2,0.61-0.6,0.88-0.57
		C119.51,28.67,119.89,29.02,120.67,29.45z"/>
	<path class="st0" d="M87.06,58.41c-0.47,0.4-0.93,0.92-1.03,0.85c-0.42-0.26-0.74-0.7-1.09-1.07c0.38-0.34,0.77-0.68,1.15-1.03
		C86.37,57.52,86.64,57.87,87.06,58.41z"/>
	<path class="st0" d="M86.71,47.24c0.36,0.65,0.76,1.04,0.69,1.31c-0.1,0.4-0.52,0.72-0.81,1.08c-0.31-0.34-0.84-0.67-0.88-1.04
		C85.69,48.27,86.21,47.89,86.71,47.24z"/>
	<path class="st0" d="M72.7,58.78c0.39,0.57,0.87,1,0.79,1.2c-0.17,0.41-0.63,0.92-1,0.95c-0.35,0.02-0.73-0.54-1.09-0.84
		C71.77,59.72,72.13,59.35,72.7,58.78z"/>
	<path class="st0" d="M82.49,109.39c-0.52,0.21-1.04,0.52-1.57,0.56c-0.19,0.01-0.42-0.67-0.63-1.03c0.66-0.1,1.31-0.2,1.97-0.3
		C82.33,108.87,82.41,109.13,82.49,109.39z"/>
	<path class="st0" d="M178.67,117.01c-0.38-0.52-0.82-0.98-0.76-1.07c0.26-0.36,0.65-0.67,1.06-0.86c0.09-0.04,0.68,0.55,0.63,0.76
		C179.52,116.19,179.12,116.47,178.67,117.01z"/>
	<path class="st0" d="M68.16,99.53c-0.22-0.46-0.52-0.86-0.56-1.28c-0.03-0.25,0.35-0.76,0.55-0.77c0.48-0.01,0.96,0.21,1.6,0.38
		C69.13,98.51,68.74,98.92,68.16,99.53z"/>
	<path class="st0" d="M169.74,108.05c0.46-0.19,0.96-0.58,1.38-0.5c0.34,0.06,0.58,0.67,0.86,1.04c-0.11,0.13-0.21,0.25-0.32,0.38
		c-0.6-0.13-1.2-0.26-1.8-0.39C169.82,108.4,169.78,108.23,169.74,108.05z"/>
	<ellipse class="st0" cx="120.38" cy="65.48" rx="0.19" ry="3.9"/>
</g>
<g>
	<path class="st0" d="M41.3,151.4c2.67,2.34,3.9,6.28,3.16,10.01c-0.66,3.2-2.75,6.11-5.87,8.21c-2.75,1.85-5.62,2.46-8,2.59
		c0.04,1.6,0.08,3.2,0.16,4.8l-7.14,0.33c-0.37-7.51-0.25-15.1,0.29-22.61l-1.72-5.21c4.19-1.39,8.66-1.68,12.97-0.82
		c1.64,0.33,4.06,0.98,6.07,2.75L41.3,151.4z M37.49,159.93c0.25-1.19-0.12-2.54-0.86-3.2c-0.53-0.49-1.44-0.86-2.79-1.11
		c-0.9-0.16-1.81-0.25-2.71-0.29c-0.25,3.2-0.41,6.4-0.45,9.6c1.23-0.08,2.67-0.41,3.98-1.31c1.52-1.03,2.54-2.34,2.79-3.65
		L37.49,159.93z"/>
	<path class="st0" d="M61.7,155.83c2.58,6.57,4.31,13.54,5.13,20.72l-7.1,0.82c-0.12-1.03-0.29-2.01-0.45-3
		c-1.81,0.16-3.65,0.25-5.5,0.25c-1.11,0-2.22-0.04-3.32-0.08c-0.12,0.94-0.25,1.89-0.33,2.83l-7.14-0.66
		c0.45-4.68,1.44-9.27,2.95-13.7c1.48-4.39,3.45-8.58,5.87-12.51l1.07-1.68h5.58l0.98,2.05c0.78,1.64,1.52,3.32,2.17,5.01
		L61.7,155.83z M52.05,167.4c1.93,0.04,3.86,0,5.79-0.12c-0.7-2.79-1.56-5.54-2.59-8.21c-0.98,2.01-1.81,4.06-2.5,6.15
		c-0.25,0.7-0.45,1.44-0.66,2.17H52.05z"/>
	<path class="st0" d="M102.36,148.98v0.37c-0.12,3.28-0.33,7.59-0.78,11.9c-0.04,0.45-0.08,0.94-0.12,1.44
		c-0.33,3.28-0.7,6.98-2.38,10.05c-1.27,2.3-3.36,3.9-5.74,4.35c-0.45,0.08-0.9,0.12-1.35,0.12c-1.68,0-3.28-0.57-4.64-1.72
		c-0.86-0.7-1.56-1.52-2.13-2.42c-1.56,2.34-3.86,3.94-6.28,4.27c-0.33,0.04-0.66,0.08-0.98,0.08c-1.85,0-3.61-0.7-5.05-2.05
		c-2.5-2.34-3.45-5.74-3.98-8.45c-0.9-4.55-1.15-9.15-1.4-13.62c-0.08-1.39-0.16-2.79-0.25-4.19l7.14-0.49
		c0.08,1.44,0.16,2.87,0.25,4.31c0.21,4.23,0.45,8.58,1.23,12.6c0.21,0.98,0.7,3.57,1.81,4.6c0.12,0.12,0.21,0.16,0.21,0.16
		c0.16,0,0.86-0.41,1.44-1.35c1.64-2.71,2.38-6.36,2.38-11.53c0-0.25,0-0.49,0-0.74l7.18-0.12c0.04,2.91,0.29,5.46,0.74,7.8
		c0.25,1.27,0.86,4.6,2.26,5.74c0.08,0.04,0.12,0.04,0.12,0.04c0.04,0,0.41-0.21,0.7-0.74c0.98-1.76,1.27-4.68,1.52-7.26
		c0.04-0.53,0.08-1.03,0.12-1.52c0.45-4.1,0.66-8.25,0.78-11.41v-0.37L102.36,148.98z"/>
	<path class="st0" d="M120.17,164.82c1.68,2.34,2.13,5.21,1.23,7.88c-0.94,2.71-3.24,4.84-6.11,5.66c-0.86,0.25-1.72,0.37-2.63,0.37
		c-3.41,0-6.98-1.72-9.64-4.8l5.42-4.68c1.48,1.72,3.49,2.67,4.88,2.26c0.66-0.16,1.15-0.57,1.35-1.11c0.16-0.45,0.08-0.9-0.21-1.31
		c-0.66-0.9-2.22-1.72-3.69-2.54c-3.16-1.72-8.45-4.55-7.39-11.2c0.62-3.82,3.77-6.69,7.67-6.98c3.77-0.29,7.84,1.56,10.09,4.6
		l-5.74,4.27c-0.82-1.07-2.46-1.81-3.82-1.68c-0.57,0.04-1.07,0.45-1.15,0.98c-0.21,1.27,0.12,1.81,3.69,3.73
		c2.09,1.15,4.47,2.42,6.07,4.64L120.17,164.82z"/>
	<path class="st0" d="M154.39,172.16c-2.75,2.17-5.83,3.77-9.15,4.76c-2.67,0.78-5.21,1.07-7.47,1.07c-2.46,0-4.6-0.33-6.24-0.7
		l1.56-7.06c1.72-4.51,4.06-8.7,6.93-12.47c0.53-0.7,1.11-1.39,1.68-2.09c-1.56,0.08-3.12,0.25-4.64,0.49
		c-1.23,0.21-2.5,0.49-3.73,0.82l-1.89-6.89c1.44-0.41,2.91-0.74,4.39-0.98c5.38-0.94,10.91-0.98,16.45-0.08l-1.15,7.06
		c-2.05,1.81-3.77,3.77-5.42,5.95c-1.97,2.59-3.65,5.46-5.01,8.49c0.82-0.12,1.64-0.29,2.5-0.53c2.42-0.7,4.68-1.85,6.69-3.45
		L154.39,172.16z"/>
	<path class="st0" d="M174.7,152.3c2.75,3.32,4.19,8.12,3.65,12.27c-0.45,3.49-2.34,8.21-6.24,10.91c-1.85,1.27-3.86,1.93-5.95,1.93
		c-0.82,0-1.64-0.08-2.46-0.29c-3.94-0.9-7.26-3.94-8.86-8.08c-1.44-3.69-1.52-8.17-0.25-11.98c1.52-4.55,5.91-9.31,11.98-9.03
		c3.08,0.16,5.99,1.68,8.17,4.31L174.7,152.3z M171.21,163.62c0.29-2.13-0.57-4.96-2.05-6.73c-0.9-1.11-1.93-1.68-3.04-1.72
		c-0.04,0-0.08,0-0.12,0c-2.13,0-3.98,2.09-4.68,4.14c-0.74,2.22-0.7,5.01,0.12,7.1c0.78,1.97,2.17,3.32,3.86,3.73
		c0.98,0.25,1.85,0.08,2.71-0.53c1.6-1.11,2.91-3.57,3.24-5.99H171.21z"/>
	<path class="st0" d="M204.12,148.85v28.19l-7.18,0.04c-5.09-3.36-7.92-8.33-9.85-12.27v12.23h-7.18v-28.07l7.18,0.04
		c2.09,3,3.53,6.15,4.92,9.23c0.53,1.19,1.03,2.3,1.56,3.41c0.86,1.76,1.97,3.77,3.41,5.62v-18.46L204.12,148.85z"/>
	<path class="st0" d="M226.15,156.03h-12.43c-0.04,1.27-0.04,2.54-0.04,3.82l6.4-0.08l0.08,7.18l-6.4,0.08
		c0.04,1.03,0.08,2.05,0.12,3.08c1.03,0,2.05-0.04,3.08-0.12c2.5-0.16,5.05-0.49,7.51-0.94l1.31,7.06
		c-2.75,0.49-5.54,0.86-8.33,1.07c-1.6,0.12-3.2,0.16-4.8,0.16c-1.85,0-3.69-0.08-5.54-0.21l0.04-0.37h-0.04
		c-0.49-6.85-0.66-13.79-0.53-20.72h-0.12v-7.18h19.69V156.03z"/>
</g>
</svg>
