<?xml version="1.0" encoding="utf-8"?>
<!-- Generator: Adobe Illustrator 24.0.0, SVG Export Plug-In . SVG Version: 6.00 Build 0)  -->
<svg version="1.1" id="Layer_1" xmlns="http://www.w3.org/2000/svg" xmlns:xlink="http://www.w3.org/1999/xlink" x="0px" y="0px"
	 viewBox="0 0 744.96 208.34" style="enable-background:new 0 0 744.96 208.34;" xml:space="preserve">
<style type="text/css">
	.st0{fill:#FFFFFF;}
	.st1{fill:#070707;}
	.st2{fill:#121212;}
</style>
<g>
	<g>
		<path class="st2" d="M128.53,128.13c0.67,3.8,1.47,7.37,1.87,11c0.22,2.04,0.06,4.22-0.44,6.2c-0.89,3.52-3.92,5.78-7.56,5.71
			c-2.01-0.04-4.15-0.29-5.99-1.04c-9.29-3.77-18.08-1.66-26.83,1.88c-3.38,1.37-6.81,2.72-10.33,3.6c-2.12,0.53-4.5,0.41-6.71,0.15
			c-5.23-0.62-8.67-3.67-10.51-8.54c-2.02-5.38-1.84-10.89-0.81-16.43c0.08-0.45,0.15-0.9,0.25-1.51
			c-4.53,0.02-8.34-1.61-11.55-4.49c-7.11-6.37-10.57-14.28-9.23-23.86c1.35-9.66,10.76-14.6,19.62-10.5
			c0.62,0.28,1.22,0.59,1.95,0.95c-0.44-2.06-0.99-4-1.27-5.99c-0.72-5.12-0.49-10.16,1.88-14.89c3.72-7.4,11.77-10.31,19.31-6.88
			c6.28,2.86,10.04,8.04,12.63,14.22c0.26,0.61,0.49,1.22,0.87,2.15c0.28-0.81,0.47-1.33,0.64-1.85c1.43-4.4,3.58-8.38,6.92-11.64
			c8.4-8.18,20.55-5.75,25.11,5.05c2.27,5.38,2.49,10.98,1.5,16.68c-0.09,0.5-0.17,0.99-0.2,1.15c2.67-0.44,5.34-1.34,7.97-1.24
			c6.94,0.28,12.09,5.35,12.72,12.64c0.92,10.61-3.25,19.01-12.03,25.02C135.43,127.66,132.12,128.45,128.53,128.13z M69.46,133.08
			c0.43,2.14,0.65,4.34,1.34,6.39c0.96,2.87,3.15,4.28,6.16,4.11c1.43-0.08,2.87-0.51,4.25-0.95c1.39-0.44,2.71-1.13,4.08-1.64
			c9.41-3.5,18.91-4.9,28.7-1.47c2.95,1.04,5.42-0.79,5.7-4.21c0.16-2,0.17-4.13-0.32-6.06c-1.39-5.57-3.4-10.97-8.03-14.71
			c-7.94-6.41-17.12-7.68-26.5-4.43C76.48,113.02,69.35,120.89,69.46,133.08z M75.18,72.86c-2.24-0.04-4.2,0.76-6.05,1.92
			c-1.09,0.68-1.71,1.58-1.88,2.9c-0.77,5.69,0.49,10.95,3.37,15.83c2.04,3.46,4.69,6.34,8.65,7.63c5.04,1.65,10.46-1.92,10.52-7.21
			c0.07-6.12-1.5-11.85-5.61-16.6C81.83,74.61,78.9,72.91,75.18,72.86z M120.78,82.1c-0.34-1.34-0.76-4.06-1.75-6.54
			c-1.31-3.28-4.04-4.83-7.27-4.18c-3.75,0.76-7.04,2.36-8.52,6.35c-2.39,6.44-3.19,12.94,0.32,19.15
			c3.31,5.83,7.91,6.25,12.31,1.08C119.4,93.81,120.49,88.77,120.78,82.1z M142.22,102.07c-0.29-1.23-0.66-3.45-1.4-5.54
			c-0.29-0.81-1.33-1.63-2.19-1.9c-2.47-0.77-4.77,0.07-6.84,1.43c-4.51,2.96-7.14,7.25-8.44,12.41c-0.76,3.01-0.84,6.02,0.38,8.94
			c1.52,3.62,3.93,4.69,7.53,3.23c1.29-0.52,2.56-1.25,3.61-2.15C139.61,114.47,141.89,109.24,142.22,102.07z M54.03,98.95
			c-5.72,0.48-8.01,2.04-7.14,7.41c0.01,0.05,0.01,0.1,0.01,0.16c1.17,6.76,4.18,12.32,10.61,15.36c4.64,2.2,8.89-0.03,10.17-5
			c0.7-2.72,0.36-5.07-1.13-7.45c-1.17-1.86-2.22-3.81-3.61-5.49C60.58,101.07,57.63,99.08,54.03,98.95z M90.25,86.59
			c-0.09,0-0.18,0-0.27,0c0,1.84,0,3.68,0,5.51c0.09,0,0.18,0,0.27,0C90.25,90.27,90.25,88.43,90.25,86.59z"/>
		<path class="st2" d="M44.95,75.43c0.12-1.34,1.4-2.43,2.69-2.28c1.37,0.16,2.21,1.32,2.04,2.81c-0.15,1.32-1.09,2.07-2.5,1.97
			C45.85,77.85,44.84,76.71,44.95,75.43z"/>
		<path class="st2" d="M52.68,85.6c0.03,1.35-0.96,2.37-2.34,2.41c-1.47,0.04-2.53-0.96-2.53-2.38c0.01-1.26,1.14-2.39,2.42-2.41
			C51.48,83.19,52.65,84.34,52.68,85.6z"/>
		<path class="st2" d="M56.47,139.31c-1.4-0.03-2.35-1-2.32-2.38c0.03-1.32,1.11-2.39,2.41-2.38c1.33,0.01,2.51,1.23,2.44,2.54
			C58.92,138.43,57.88,139.34,56.47,139.31z"/>
		<path class="st2" d="M137.76,79.11c1.32,0.01,2.49,1.24,2.44,2.54c-0.06,1.3-1.14,2.28-2.51,2.25c-1.44-0.03-2.28-0.92-2.26-2.4
			C135.46,80.11,136.44,79.1,137.76,79.11z"/>
		<path class="st2" d="M42.83,132.04c-1.34-0.04-2.38-1.1-2.36-2.42c0.02-1.38,1.17-2.41,2.57-2.38c1.45,0.03,2.23,1.37,2.21,2.68
			C45.23,131.17,44.15,132.08,42.83,132.04z"/>
		<path class="st2" d="M136.64,141.53c-1.39-0.02-2.4-1.04-2.35-2.38c0.05-1.32,1.17-2.36,2.48-2.3c1.45,0.07,2.31,0.98,2.28,2.43
			C139.03,140.74,138.16,141.55,136.64,141.53z"/>
		<path class="st2" d="M96.89,62.79c-1.13,0.02-2.31-1.22-2.35-2.48c-0.04-1.33,0.85-2.26,2.2-2.32c1.44-0.06,2.58,0.97,2.58,2.35
			C99.33,61.49,98.06,62.76,96.89,62.79z"/>
		<path class="st2" d="M146.22,126.94c1.25,0.04,2.34,1.16,2.27,2.33c-0.06,0.98-1.64,2.5-2.56,2.47c-1.29-0.04-2.33-1.22-2.24-2.52
			C143.78,127.93,144.92,126.9,146.22,126.94z"/>
		<path class="st2" d="M78.4,55.8c-0.04-1.76,0.53-2.5,1.9-2.47c1.26,0.02,2.38,1.18,2.38,2.45c0,1.34-1.02,2.32-2.42,2.33
			C78.81,58.13,78.44,57.67,78.4,55.8z"/>
		<path class="st2" d="M50.16,142.78c-0.55,0.48-0.94,1.06-1.25,1.02c-0.43-0.06-0.8-0.58-1.2-0.9c0.37-0.38,0.68-0.93,1.13-1.06
			C49.11,141.75,49.57,142.33,50.16,142.78z"/>
		<path class="st2" d="M94.14,68.11c-0.64,0.47-1.01,0.95-1.34,0.93c-0.37-0.02-0.71-0.52-1.06-0.81c0.33-0.36,0.61-0.91,1.02-1.03
			C93.03,67.12,93.48,67.65,94.14,68.11z"/>
		<path class="st2" d="M139.44,150.2c-0.47-0.63-1-1.01-0.98-1.38c0.01-0.37,0.55-0.72,0.86-1.08c0.32,0.4,0.76,0.77,0.9,1.23
			C140.29,149.21,139.83,149.61,139.44,150.2z"/>
		<path class="st2" d="M146.63,85.29c-0.65,0.43-1.05,0.91-1.4,0.88c-0.35-0.03-0.88-0.58-0.9-0.92c-0.01-0.35,0.57-1.06,0.78-1.01
			C145.56,84.33,145.95,84.79,146.63,85.29z"/>
		<path class="st2" d="M134.19,72.39c-0.44-0.67-0.91-1.07-0.87-1.4c0.05-0.36,0.57-0.66,0.88-0.99c0.34,0.34,0.87,0.65,0.95,1.04
			C135.22,71.33,134.68,71.74,134.19,72.39z"/>
		<path class="st2" d="M90.4,53.31c-0.81,0.43-1.28,0.89-1.62,0.81c-0.34-0.08-0.56-0.69-0.84-1.07c0.29-0.2,0.61-0.6,0.88-0.57
			C89.24,52.54,89.62,52.88,90.4,53.31z"/>
		<path class="st2" d="M56.79,82.28c-0.47,0.4-0.93,0.92-1.03,0.85c-0.42-0.26-0.74-0.7-1.09-1.07c0.38-0.34,0.77-0.68,1.15-1.03
			C56.1,81.39,56.38,81.74,56.79,82.28z"/>
		<path class="st2" d="M56.45,71.11c0.36,0.65,0.76,1.04,0.69,1.31c-0.1,0.4-0.52,0.72-0.81,1.08c-0.31-0.34-0.84-0.67-0.88-1.04
			C55.42,72.13,55.94,71.75,56.45,71.11z"/>
		<path class="st2" d="M42.44,82.64c0.39,0.57,0.87,1,0.79,1.2c-0.17,0.41-0.63,0.92-1,0.95c-0.35,0.02-0.73-0.54-1.09-0.84
			C41.5,83.58,41.87,83.21,42.44,82.64z"/>
		<path class="st2" d="M52.22,133.26c-0.52,0.21-1.04,0.52-1.57,0.56c-0.19,0.01-0.42-0.67-0.63-1.03c0.66-0.1,1.31-0.2,1.97-0.3
			C52.07,132.74,52.14,133,52.22,133.26z"/>
		<path class="st2" d="M148.4,140.88c-0.38-0.52-0.82-0.98-0.76-1.07c0.26-0.36,0.65-0.67,1.06-0.86c0.09-0.04,0.68,0.55,0.63,0.76
			C149.26,140.06,148.85,140.34,148.4,140.88z"/>
		<path class="st2" d="M37.89,123.39c-0.22-0.46-0.52-0.86-0.56-1.28c-0.03-0.25,0.35-0.76,0.55-0.77c0.48-0.01,0.96,0.21,1.6,0.38
			C38.86,122.37,38.47,122.78,37.89,123.39z"/>
		<path class="st2" d="M139.47,131.92c0.46-0.19,0.96-0.58,1.38-0.5c0.34,0.06,0.58,0.67,0.86,1.04c-0.11,0.13-0.21,0.25-0.32,0.38
			c-0.6-0.13-1.2-0.26-1.8-0.39C139.55,132.27,139.51,132.09,139.47,131.92z"/>
		<ellipse class="st2" cx="90.11" cy="89.35" rx="0.19" ry="3.9"/>
	</g>
	<g>
		<path class="st2" d="M219.98,81.42c7.04,6.17,10.28,16.56,8.33,26.41c-1.73,8.44-7.25,16.13-15.48,21.65
			c-7.25,4.87-14.83,6.49-21.11,6.82c0.11,4.22,0.22,8.44,0.43,12.66l-18.83,0.87c-0.97-19.81-0.65-39.83,0.76-59.64l-4.55-13.75
			c11.04-3.68,22.84-4.44,34.21-2.16c4.33,0.87,10.72,2.6,16.02,7.25L219.98,81.42z M209.91,103.94c0.65-3.14-0.32-6.71-2.27-8.44
			c-1.41-1.3-3.79-2.27-7.36-2.92c-2.38-0.43-4.76-0.65-7.14-0.76c-0.65,8.44-1.08,16.89-1.19,25.33c3.25-0.22,7.04-1.08,10.5-3.46
			c4-2.71,6.71-6.17,7.36-9.63L209.91,103.94z"/>
		<path class="st2" d="M273.78,93.11c6.82,17.32,11.37,35.72,13.53,54.66l-18.73,2.17c-0.32-2.71-0.76-5.3-1.19-7.9
			c-4.76,0.43-9.63,0.65-14.51,0.65c-2.92,0-5.85-0.11-8.77-0.22c-0.32,2.49-0.65,4.98-0.87,7.47l-18.84-1.73
			c1.19-12.34,3.79-24.46,7.79-36.15c3.9-11.58,9.09-22.62,15.48-33.02l2.81-4.44h14.72l2.6,5.41c2.06,4.33,4.01,8.77,5.74,13.21
			L273.78,93.11z M248.34,123.64c5.09,0.11,10.18,0,15.26-0.32c-1.84-7.36-4.11-14.61-6.82-21.65c-2.6,5.3-4.76,10.72-6.6,16.24
			c-0.65,1.84-1.19,3.79-1.73,5.74H248.34z"/>
		<path class="st2" d="M381.05,75.03v0.97c-0.32,8.66-0.87,20.03-2.06,31.39c-0.11,1.19-0.22,2.49-0.32,3.79
			c-0.87,8.66-1.84,18.4-6.28,26.52c-3.36,6.06-8.88,10.28-15.15,11.47c-1.19,0.22-2.38,0.32-3.57,0.32
			c-4.44,0-8.66-1.52-12.23-4.55c-2.27-1.84-4.11-4-5.63-6.39c-4.11,6.17-10.18,10.39-16.56,11.26c-0.87,0.11-1.73,0.22-2.6,0.22
			c-4.87,0-9.53-1.84-13.31-5.41c-6.6-6.17-9.09-15.15-10.5-22.3c-2.38-12.02-3.03-24.14-3.68-35.94
			c-0.22-3.68-0.43-7.36-0.65-11.04l18.83-1.3c0.22,3.79,0.43,7.58,0.65,11.37c0.54,11.15,1.19,22.62,3.25,33.23
			c0.54,2.6,1.84,9.42,4.76,12.12c0.32,0.32,0.54,0.43,0.54,0.43c0.43,0,2.27-1.08,3.79-3.57c4.33-7.14,6.28-16.78,6.28-30.42
			c0-0.65,0-1.3,0-1.95l18.94-0.33c0.11,7.69,0.76,14.4,1.95,20.57c0.65,3.36,2.27,12.12,5.95,15.15c0.22,0.11,0.32,0.11,0.32,0.11
			c0.11,0,1.08-0.54,1.84-1.95c2.6-4.66,3.36-12.34,4.01-19.16c0.11-1.41,0.22-2.71,0.32-4.01c1.19-10.82,1.73-21.76,2.06-30.09
			V74.6L381.05,75.03z"/>
		<path class="st2" d="M428.03,116.82c4.44,6.17,5.63,13.75,3.25,20.78c-2.49,7.14-8.55,12.77-16.13,14.94
			c-2.27,0.65-4.55,0.97-6.93,0.97c-8.98,0-18.4-4.55-25.44-12.67l14.29-12.34c3.9,4.55,9.2,7.04,12.88,5.95
			c1.73-0.43,3.03-1.51,3.57-2.92c0.43-1.19,0.22-2.38-0.54-3.46c-1.73-2.38-5.85-4.55-9.74-6.71c-8.33-4.55-22.3-12.01-19.48-29.55
			c1.62-10.07,9.96-17.64,20.24-18.4c9.96-0.76,20.68,4.11,26.63,12.12l-15.15,11.26c-2.17-2.81-6.49-4.76-10.07-4.44
			c-1.52,0.11-2.81,1.19-3.03,2.6c-0.54,3.36,0.32,4.76,9.74,9.85c5.52,3.03,11.8,6.39,16.02,12.23L428.03,116.82z"/>
		<path class="st2" d="M518.3,136.19c-7.25,5.74-15.37,9.96-24.14,12.56c-7.04,2.06-13.75,2.81-19.7,2.81
			c-6.5,0-12.12-0.87-16.45-1.84l4.11-18.62c4.55-11.91,10.72-22.95,18.29-32.91c1.41-1.84,2.92-3.68,4.44-5.52
			c-4.11,0.22-8.23,0.65-12.23,1.3c-3.25,0.54-6.6,1.3-9.85,2.16l-4.98-18.19c3.79-1.08,7.69-1.95,11.58-2.6
			c14.18-2.49,28.79-2.6,43.41-0.22l-3.03,18.62c-5.41,4.76-9.96,9.96-14.29,15.7c-5.2,6.82-9.63,14.4-13.21,22.41
			c2.16-0.32,4.33-0.76,6.6-1.41c6.39-1.84,12.34-4.87,17.64-9.09L518.3,136.19z"/>
		<path class="st2" d="M571.89,83.8c7.25,8.77,11.04,21.43,9.63,32.37c-1.19,9.2-6.17,21.65-16.45,28.79
			c-4.87,3.36-10.18,5.09-15.7,5.09c-2.17,0-4.33-0.22-6.5-0.76c-10.39-2.38-19.16-10.39-23.38-21.32c-3.79-9.74-4-21.54-0.65-31.61
			c4-12.02,15.59-24.57,31.61-23.81c8.12,0.43,15.8,4.44,21.54,11.37L571.89,83.8z M562.69,113.68c0.76-5.63-1.52-13.1-5.41-17.75
			c-2.38-2.92-5.09-4.44-8.01-4.55c-0.11,0-0.22,0-0.32,0c-5.63,0-10.5,5.52-12.34,10.93c-1.95,5.85-1.84,13.21,0.32,18.73
			c2.06,5.2,5.74,8.77,10.18,9.85c2.6,0.65,4.87,0.22,7.14-1.41c4.22-2.92,7.69-9.42,8.55-15.8H562.69z"/>
		<path class="st2" d="M649.5,74.71v74.36l-18.94,0.11c-13.42-8.88-20.89-21.97-25.98-32.37v32.26h-18.94V75.03l18.94,0.11
			c5.52,7.9,9.31,16.24,12.99,24.36c1.41,3.14,2.71,6.06,4.11,8.98c2.27,4.65,5.2,9.96,8.98,14.83V74.6L649.5,74.71z"/>
		<path class="st2" d="M707.63,93.65h-32.8c-0.11,3.36-0.11,6.71-0.11,10.07l16.89-0.22l0.22,18.94l-16.89,0.22
			c0.11,2.71,0.22,5.41,0.32,8.12c2.71,0,5.41-0.11,8.12-0.32c6.6-0.43,13.31-1.3,19.81-2.49l3.46,18.62
			c-7.25,1.3-14.61,2.27-21.97,2.81c-4.22,0.32-8.44,0.43-12.66,0.43c-4.87,0-9.74-0.22-14.61-0.54l0.11-0.97h-0.11
			c-1.3-18.08-1.73-36.37-1.41-54.66h-0.32V74.71h51.96V93.65z"/>
	</g>
</g>
</svg>
