<?xml version="1.0" encoding="utf-8"?>
<!-- Generator: Adobe Illustrator 24.0.0, SVG Export Plug-In . SVG Version: 6.00 Build 0)  -->
<svg version="1.1" id="Layer_1" xmlns="http://www.w3.org/2000/svg" xmlns:xlink="http://www.w3.org/1999/xlink" x="0px" y="0px"
	 viewBox="0 0 500 500" style="enable-background:new 0 0 500 500;" xml:space="preserve">
<style type="text/css">
	.st0{fill:#FFFFFF;}
	.st1{fill:#070707;}
	.st2{fill:#121212;}
</style>
<g>
	<path class="st0" d="M398.52,365.05c2.66,15.14,5.87,29.42,7.45,43.88c0.89,8.12,0.24,16.82-1.75,24.75
		c-3.53,14.05-15.64,23.07-30.16,22.78c-8.02-0.16-16.55-1.17-23.89-4.15c-37.08-15.02-72.12-6.61-107.04,7.5
		c-13.49,5.45-27.16,10.84-41.22,14.38c-8.47,2.13-17.96,1.64-26.79,0.6c-20.87-2.46-34.61-14.66-41.91-34.09
		c-8.07-21.46-7.34-43.45-3.22-65.56c0.33-1.79,0.6-3.6,1-6.02c-18.07,0.08-33.26-6.43-46.09-17.92
		c-28.37-25.41-42.16-56.99-36.84-95.22c5.37-38.55,42.92-58.23,78.27-41.91c2.46,1.13,4.87,2.37,7.76,3.79
		c-1.77-8.22-3.94-15.98-5.05-23.88c-2.88-20.43-1.97-40.53,7.51-59.42c14.83-29.54,46.98-41.12,77.06-27.43
		c25.07,11.41,40.08,32.07,50.41,56.73c1.02,2.43,1.97,4.89,3.46,8.59c1.12-3.24,1.87-5.29,2.55-7.36
		c5.7-17.57,14.29-33.44,27.63-46.44c33.5-32.65,81.97-22.94,100.19,20.16c9.07,21.47,9.93,43.82,5.99,66.54
		c-0.34,1.98-0.68,3.97-0.79,4.6c10.66-1.77,21.31-5.36,31.79-4.93c27.68,1.13,48.23,21.33,50.74,50.44
		c3.66,42.34-12.95,75.85-48.01,99.84C426.03,363.19,412.83,366.33,398.52,365.05z M162.83,384.8c1.71,8.53,2.59,17.33,5.33,25.51
		c3.84,11.46,12.58,17.06,24.59,16.39c5.71-0.32,11.44-2.05,16.95-3.79c5.56-1.76,10.8-4.5,16.28-6.54
		c37.54-13.96,75.44-19.54,114.5-5.85c11.79,4.13,21.63-3.15,22.75-16.8c0.65-7.99,0.67-16.47-1.26-24.17
		c-5.57-22.21-13.55-43.76-32.05-58.67c-31.7-25.57-68.32-30.64-105.73-17.69C190.83,304.74,162.39,336.16,162.83,384.8z
		 M185.65,144.53c-8.92-0.15-16.74,3.03-24.15,7.65c-4.36,2.72-6.8,6.32-7.51,11.57c-3.06,22.7,1.97,43.69,13.46,63.16
		c8.13,13.79,18.69,25.28,34.49,30.45c20.11,6.58,41.73-7.65,41.98-28.77c0.29-24.4-5.98-47.26-22.38-66.23
		C212.17,151.53,200.48,144.71,185.65,144.53z M367.58,181.39c-1.38-5.36-3.03-16.19-6.97-26.1c-5.21-13.09-16.13-19.29-29.02-16.68
		c-14.96,3.03-28.07,9.43-33.99,25.36c-9.55,25.71-12.74,51.65,1.29,76.4c13.19,23.28,31.55,24.96,49.13,4.29
		C362.08,228.12,366.43,208.02,367.58,181.39z M453.15,261.05c-1.17-4.91-2.62-13.77-5.58-22.09c-1.14-3.22-5.29-6.49-8.75-7.57
		c-9.86-3.08-19.04,0.3-27.29,5.7c-18.01,11.81-28.49,28.94-33.69,49.52c-3.03,12-3.34,24.01,1.52,35.66
		c6.05,14.46,15.68,18.73,30.06,12.9c5.14-2.08,10.2-5,14.41-8.58C442.73,310.53,451.79,289.69,453.15,261.05z M101.27,248.6
		c-22.83,1.92-31.95,8.12-28.48,29.57c0.03,0.21,0.02,0.42,0.06,0.62c4.66,26.96,16.69,49.15,42.32,61.29
		c18.49,8.76,35.48-0.11,40.59-19.94c2.8-10.87,1.45-20.25-4.5-29.71c-4.66-7.4-8.88-15.21-14.4-21.91
		C127.41,257.07,115.61,249.14,101.27,248.6z M245.77,199.31c-0.36,0-0.72,0-1.07,0c0,7.33,0,14.67,0,22c0.36,0,0.72,0,1.07,0
		C245.77,213.97,245.77,206.64,245.77,199.31z"/>
	<path class="st0" d="M65.04,154.79c0.47-5.35,5.6-9.7,10.73-9.1c5.46,0.64,8.82,5.25,8.15,11.21c-0.59,5.28-4.35,8.25-9.98,7.88
		C68.62,164.42,64.58,159.89,65.04,154.79z"/>
	<path class="st0" d="M95.87,195.35c0.11,5.4-3.83,9.47-9.33,9.61c-5.85,0.16-10.1-3.85-10.08-9.49c0.03-5.01,4.56-9.53,9.66-9.63
		C91.08,185.75,95.76,190.32,95.87,195.35z"/>
	<path class="st0" d="M111.01,409.66c-5.59-0.11-9.39-4.01-9.27-9.5c0.11-5.27,4.41-9.52,9.6-9.5c5.32,0.02,10.01,4.91,9.72,10.14
		C120.77,406.13,116.63,409.77,111.01,409.66z"/>
	<path class="st0" d="M435.35,169.47c5.28,0.06,9.95,4.93,9.73,10.15c-0.22,5.18-4.57,9.09-10,8.98c-5.73-0.11-9.08-3.68-9.01-9.58
		C426.14,173.46,430.08,169.41,435.35,169.47z"/>
	<path class="st0" d="M56.59,380.65c-5.34-0.14-9.49-4.39-9.41-9.64c0.08-5.5,4.67-9.63,10.26-9.5c5.8,0.13,8.91,5.45,8.82,10.68
		C66.17,377.18,61.87,380.78,56.59,380.65z"/>
	<path class="st0" d="M430.88,418.49c-5.56-0.09-9.59-4.17-9.38-9.49c0.2-5.28,4.68-9.42,9.91-9.17c5.78,0.27,9.22,3.93,9.11,9.7
		C440.4,415.35,436.91,418.6,430.88,418.49z"/>
	<path class="st0" d="M272.26,104.34c-4.53,0.09-9.24-4.88-9.37-9.88c-0.14-5.3,3.39-9.02,8.78-9.24c5.76-0.24,10.28,3.87,10.3,9.37
		C281.99,99.16,276.93,104.25,272.26,104.34z"/>
	<path class="st0" d="M469.07,360.3c5,0.17,9.35,4.63,9.07,9.29c-0.24,3.89-6.54,9.97-10.22,9.85c-5.13-0.17-9.31-4.86-8.94-10.05
		C459.34,364.23,463.91,360.12,469.07,360.3z"/>
	<path class="st0" d="M198.51,76.47c-0.14-7.02,2.13-9.97,7.58-9.86c5.05,0.1,9.5,4.7,9.49,9.78c-0.01,5.35-4.05,9.24-9.65,9.29
		C200.13,85.74,198.67,83.92,198.51,76.47z"/>
	<path class="st0" d="M85.82,423.48c-2.2,1.9-3.76,4.23-4.99,4.07c-1.72-0.23-3.19-2.31-4.77-3.61c1.47-1.5,2.73-3.72,4.49-4.24
		C81.62,419.39,83.46,421.7,85.82,423.48z"/>
	<path class="st0" d="M261.31,125.56c-2.54,1.87-4.02,3.8-5.36,3.71c-1.47-0.1-2.81-2.07-4.21-3.22c1.33-1.45,2.45-3.63,4.07-4.11
		C256.89,121.63,258.68,123.73,261.31,125.56z"/>
	<path class="st0" d="M442.04,453.08c-1.89-2.49-3.97-4.03-3.91-5.49c0.06-1.48,2.21-2.89,3.44-4.33c1.26,1.61,3.05,3.07,3.58,4.89
		C445.44,449.15,443.58,450.76,442.04,453.08z"/>
	<path class="st0" d="M470.72,194.12c-2.58,1.72-4.19,3.63-5.6,3.49c-1.38-0.13-3.53-2.31-3.58-3.66c-0.05-1.4,2.28-4.21,3.09-4.05
		C466.47,190.29,468.01,192.12,470.72,194.12z"/>
	<path class="st0" d="M421.1,142.64c-1.76-2.68-3.63-4.27-3.46-5.6c0.18-1.44,2.27-2.63,3.53-3.93c1.35,1.37,3.47,2.58,3.79,4.15
		C425.18,138.42,423.05,140.06,421.1,142.64z"/>
	<path class="st0" d="M246.39,66.54c-3.23,1.73-5.09,3.55-6.46,3.23c-1.37-0.31-2.25-2.76-3.35-4.27c1.17-0.82,2.45-2.41,3.49-2.27
		C241.75,63.45,243.28,64.81,246.39,66.54z"/>
	<path class="st0" d="M112.3,182.1c-1.87,1.59-3.7,3.65-4.1,3.41c-1.68-1.05-2.94-2.78-4.35-4.26c1.53-1.36,3.07-2.73,4.6-4.09
		C109.54,178.55,110.63,179.96,112.3,182.1z"/>
	<path class="st0" d="M110.9,137.53c1.45,2.6,3.02,4.13,2.75,5.21c-0.39,1.6-2.09,2.88-3.23,4.3c-1.25-1.37-3.35-2.66-3.49-4.13
		C106.81,141.62,108.89,140.11,110.9,137.53z"/>
	<path class="st0" d="M55.01,183.55c1.55,2.27,3.47,4.01,3.14,4.8c-0.68,1.62-2.51,3.69-3.98,3.77c-1.38,0.08-2.91-2.14-4.37-3.34
		C51.27,187.31,52.73,185.84,55.01,183.55z"/>
	<path class="st0" d="M94.05,385.49c-2.08,0.82-4.14,2.09-6.27,2.22c-0.75,0.05-1.68-2.67-2.52-4.13c2.62-0.4,5.24-0.79,7.86-1.19
		C93.43,383.43,93.74,384.46,94.05,385.49z"/>
	<path class="st0" d="M477.8,415.9c-1.51-2.08-3.29-3.89-3.02-4.28c1.02-1.46,2.59-2.68,4.22-3.43c0.36-0.17,2.7,2.18,2.51,3.03
		C481.2,412.63,479.6,413.76,477.8,415.9z"/>
	<path class="st0" d="M36.87,346.14c-0.87-1.85-2.07-3.43-2.24-5.11c-0.1-0.99,1.39-3.04,2.21-3.06c1.91-0.05,3.84,0.83,6.37,1.5
		C40.74,342.08,39.18,343.72,36.87,346.14z"/>
	<path class="st0" d="M442.15,380.15c1.85-0.75,3.84-2.29,5.51-2.01c1.34,0.23,2.3,2.68,3.43,4.15c-0.42,0.5-0.85,1-1.27,1.5
		c-2.4-0.52-4.79-1.03-7.19-1.55C442.47,381.55,442.31,380.85,442.15,380.15z"/>
	<ellipse class="st0" cx="245.23" cy="210.31" rx="0.76" ry="15.56"/>
</g>
</svg>
