<?xml version="1.0" encoding="utf-8"?>
<!-- Generator: Adobe Illustrator 24.0.0, SVG Export Plug-In . SVG Version: 6.00 Build 0)  -->
<svg version="1.1" id="Layer_1" xmlns="http://www.w3.org/2000/svg" xmlns:xlink="http://www.w3.org/1999/xlink" x="0px" y="0px"
	 viewBox="0 0 500 500" style="enable-background:new 0 0 500 500;" xml:space="preserve">
<style type="text/css">
	.st0{fill:#FFFFFF;}
</style>
<g>
	<path class="st0" d="M387.08,345.12c2.66,15.14,5.87,29.42,7.45,43.88c0.89,8.12,0.24,16.82-1.75,24.75
		c-3.53,14.05-15.64,23.07-30.16,22.78c-8.02-0.16-16.55-1.17-23.89-4.15c-37.08-15.02-72.12-6.61-107.04,7.5
		c-13.49,5.45-27.16,10.84-41.22,14.38c-8.47,2.13-17.96,1.64-26.79,0.6c-20.87-2.46-34.61-14.66-41.91-34.09
		c-8.07-21.46-7.34-43.45-3.22-65.56c0.33-1.79,0.6-3.6,1-6.02c-18.07,0.08-33.26-6.43-46.09-17.92
		c-28.37-25.41-42.16-56.99-36.84-95.22c5.37-38.55,42.92-58.23,78.27-41.91c2.46,1.13,4.87,2.37,7.76,3.79
		c-1.77-8.22-3.94-15.98-5.05-23.88c-2.88-20.43-1.97-40.53,7.51-59.42c14.83-29.54,46.98-41.12,77.06-27.43
		c25.07,11.41,40.08,32.07,50.41,56.73c1.02,2.43,1.97,4.89,3.46,8.59c1.12-3.24,1.87-5.29,2.55-7.36
		c5.7-17.57,14.29-33.44,27.63-46.44c33.5-32.65,81.97-22.94,100.19,20.16c9.07,21.47,9.93,43.82,5.99,66.54
		c-0.34,1.98-0.68,3.97-0.79,4.6c10.66-1.77,21.31-5.36,31.79-4.93c27.68,1.13,48.23,21.33,50.74,50.44
		c3.66,42.34-12.95,75.85-48.01,99.84C414.6,343.26,401.39,346.4,387.08,345.12z M151.39,364.87c1.71,8.53,2.59,17.33,5.33,25.51
		c3.84,11.46,12.58,17.06,24.59,16.39c5.71-0.32,11.44-2.05,16.95-3.79c5.56-1.76,10.8-4.5,16.28-6.54
		c37.54-13.96,75.44-19.54,114.5-5.85c11.79,4.13,21.63-3.15,22.75-16.8c0.65-7.99,0.67-16.47-1.26-24.17
		c-5.57-22.21-13.55-43.76-32.05-58.67c-31.7-25.57-68.32-30.64-105.73-17.69C179.39,284.81,150.95,316.23,151.39,364.87z
		 M174.21,124.6c-8.92-0.15-16.74,3.03-24.15,7.65c-4.36,2.72-6.8,6.32-7.51,11.57c-3.06,22.7,1.97,43.69,13.46,63.16
		c8.13,13.79,18.69,25.28,34.49,30.45c20.11,6.58,41.73-7.65,41.98-28.77c0.29-24.4-5.98-47.26-22.38-66.23
		C200.73,131.6,189.04,124.78,174.21,124.6z M356.14,161.46c-1.38-5.36-3.03-16.19-6.97-26.1c-5.21-13.09-16.13-19.29-29.02-16.68
		c-14.96,3.03-28.07,9.43-33.99,25.36c-9.55,25.71-12.74,51.65,1.29,76.4c13.19,23.28,31.55,24.96,49.13,4.29
		C350.65,208.19,355,188.09,356.14,161.46z M441.71,241.12c-1.17-4.91-2.62-13.77-5.58-22.09c-1.14-3.22-5.29-6.49-8.75-7.57
		c-9.86-3.08-19.04,0.3-27.29,5.7c-18.01,11.81-28.49,28.94-33.69,49.52c-3.03,12-3.34,24.01,1.52,35.66
		c6.04,14.46,15.68,18.73,30.06,12.9c5.14-2.08,10.2-5,14.41-8.58C431.29,290.6,440.36,269.76,441.71,241.12z M89.83,228.67
		c-22.83,1.92-31.95,8.12-28.48,29.57c0.03,0.21,0.02,0.42,0.06,0.62c4.66,26.96,16.69,49.15,42.32,61.29
		c18.49,8.76,35.48-0.11,40.59-19.94c2.8-10.87,1.45-20.25-4.5-29.71c-4.66-7.4-8.88-15.21-14.4-21.91
		C115.98,237.14,104.17,229.21,89.83,228.67z M234.33,179.38c-0.36,0-0.72,0-1.07,0c0,7.33,0,14.67,0,22c0.36,0,0.72,0,1.07,0
		C234.33,194.04,234.33,186.71,234.33,179.38z"/>
	<path class="st0" d="M53.6,134.85c0.47-5.35,5.6-9.7,10.73-9.1c5.46,0.64,8.82,5.25,8.15,11.21c-0.59,5.28-4.35,8.25-9.98,7.88
		C57.18,144.49,53.15,139.96,53.6,134.85z"/>
	<path class="st0" d="M84.43,175.42c0.11,5.4-3.83,9.47-9.33,9.61c-5.85,0.16-10.1-3.85-10.08-9.49c0.03-5.01,4.56-9.53,9.66-9.63
		C79.64,165.81,84.32,170.39,84.43,175.42z"/>
	<path class="st0" d="M99.58,389.73c-5.59-0.11-9.39-4.01-9.27-9.5c0.11-5.27,4.41-9.52,9.6-9.5c5.32,0.02,10.01,4.91,9.72,10.14
		C109.33,386.19,105.19,389.84,99.58,389.73z"/>
	<path class="st0" d="M423.91,149.54c5.28,0.06,9.95,4.93,9.73,10.15c-0.22,5.18-4.57,9.09-10,8.98c-5.73-0.11-9.08-3.68-9.01-9.58
		C414.7,153.53,418.64,149.48,423.91,149.54z"/>
	<path class="st0" d="M45.16,360.71c-5.34-0.14-9.49-4.39-9.41-9.64c0.08-5.5,4.67-9.63,10.26-9.5c5.8,0.13,8.91,5.45,8.82,10.68
		C54.74,357.25,50.43,360.85,45.16,360.71z"/>
	<path class="st0" d="M419.45,398.56c-5.56-0.09-9.59-4.17-9.38-9.49c0.2-5.28,4.68-9.42,9.91-9.17c5.78,0.27,9.22,3.93,9.11,9.7
		C428.97,395.42,425.48,398.66,419.45,398.56z"/>
	<path class="st0" d="M260.83,84.41c-4.53,0.09-9.24-4.88-9.37-9.88c-0.14-5.3,3.39-9.02,8.78-9.24c5.76-0.24,10.28,3.87,10.3,9.37
		C270.55,79.23,265.49,84.31,260.83,84.41z"/>
	<path class="st0" d="M457.64,340.37c5,0.17,9.35,4.63,9.07,9.29c-0.24,3.89-6.54,9.97-10.22,9.85c-5.13-0.17-9.31-4.86-8.94-10.05
		C447.9,344.3,452.47,340.19,457.64,340.37z"/>
	<path class="st0" d="M187.08,56.54c-0.14-7.02,2.13-9.97,7.58-9.86c5.05,0.1,9.5,4.7,9.49,9.78c-0.01,5.35-4.05,9.24-9.65,9.29
		C188.69,65.81,187.23,63.99,187.08,56.54z"/>
	<path class="st0" d="M74.38,403.55c-2.2,1.9-3.76,4.23-4.99,4.07c-1.72-0.23-3.19-2.31-4.77-3.61c1.47-1.5,2.73-3.72,4.49-4.24
		C70.18,399.46,72.03,401.77,74.38,403.55z"/>
	<path class="st0" d="M249.88,105.63c-2.54,1.87-4.02,3.8-5.36,3.71c-1.47-0.1-2.81-2.07-4.21-3.22c1.33-1.45,2.45-3.63,4.07-4.11
		C245.45,101.7,247.24,103.8,249.88,105.63z"/>
	<path class="st0" d="M430.6,433.15c-1.89-2.49-3.97-4.03-3.91-5.49c0.06-1.48,2.21-2.89,3.44-4.33c1.26,1.61,3.05,3.07,3.58,4.89
		C434,429.22,432.15,430.83,430.6,433.15z"/>
	<path class="st0" d="M459.28,174.19c-2.58,1.72-4.19,3.63-5.6,3.49c-1.38-0.13-3.53-2.31-3.58-3.66c-0.05-1.4,2.28-4.21,3.09-4.05
		C455.03,170.36,456.57,172.18,459.28,174.19z"/>
	<path class="st0" d="M409.66,122.71c-1.76-2.68-3.63-4.27-3.46-5.6c0.18-1.44,2.27-2.63,3.53-3.93c1.35,1.37,3.47,2.58,3.79,4.15
		C413.75,118.49,411.62,120.13,409.66,122.71z"/>
	<path class="st0" d="M234.96,46.61c-3.23,1.73-5.09,3.55-6.46,3.23c-1.37-0.31-2.25-2.76-3.35-4.27c1.17-0.82,2.45-2.41,3.49-2.27
		C230.31,43.52,231.84,44.88,234.96,46.61z"/>
	<path class="st0" d="M100.86,162.17c-1.87,1.59-3.7,3.65-4.1,3.41c-1.68-1.05-2.94-2.78-4.35-4.26c1.53-1.36,3.07-2.73,4.6-4.09
		C98.1,158.62,99.19,160.02,100.86,162.17z"/>
	<path class="st0" d="M99.47,117.6c1.45,2.6,3.02,4.13,2.75,5.21c-0.39,1.6-2.09,2.88-3.23,4.3c-1.25-1.37-3.35-2.66-3.49-4.13
		C95.38,121.68,97.45,120.18,99.47,117.6z"/>
	<path class="st0" d="M43.58,163.62c1.55,2.27,3.47,4.01,3.14,4.8c-0.68,1.62-2.51,3.69-3.98,3.77c-1.38,0.08-2.91-2.14-4.37-3.34
		C39.83,167.38,41.3,165.91,43.58,163.62z"/>
	<path class="st0" d="M82.61,365.56c-2.08,0.82-4.14,2.09-6.27,2.22c-0.75,0.05-1.68-2.67-2.52-4.13c2.62-0.4,5.24-0.79,7.86-1.19
		C81.99,363.49,82.3,364.53,82.61,365.56z"/>
	<path class="st0" d="M466.36,395.97c-1.51-2.08-3.29-3.89-3.02-4.28c1.02-1.46,2.59-2.68,4.22-3.43c0.36-0.17,2.7,2.18,2.51,3.03
		C469.76,392.7,468.16,393.83,466.36,395.97z"/>
	<path class="st0" d="M25.43,326.21c-0.87-1.85-2.07-3.43-2.24-5.11c-0.1-0.99,1.39-3.04,2.21-3.06c1.91-0.05,3.84,0.83,6.37,1.5
		C29.3,322.15,27.74,323.79,25.43,326.21z"/>
	<path class="st0" d="M430.71,360.22c1.85-0.75,3.84-2.29,5.51-2.01c1.34,0.23,2.3,2.68,3.43,4.15c-0.42,0.5-0.85,1-1.27,1.5
		c-2.4-0.52-4.79-1.03-7.19-1.55C431.03,361.62,430.87,360.92,430.71,360.22z"/>
	<ellipse class="st0" cx="233.8" cy="190.38" rx="0.76" ry="15.56"/>
</g>
</svg>
